<?xml version="1.0" encoding="UTF-8" standalone="no"?>
<!DOCTYPE svg PUBLIC "-//W3C//DTD SVG 1.1//EN"
 "http://www.w3.org/Graphics/SVG/1.1/DTD/svg11.dtd">
<!-- Generated by graphviz version 5.0.1 (20220820.1526)
 -->
<!-- Pages: 1 -->
<svg width="714pt" height="185pt"
 viewBox="0.00 0.00 714.00 184.50" xmlns="http://www.w3.org/2000/svg" xmlns:xlink="http://www.w3.org/1999/xlink">
<g id="graph0" class="graph" transform="scale(1 1) rotate(0) translate(4 180.5)">
<polygon fill="white" stroke="none" points="-4,4 -4,-180.5 710,-180.5 710,4 -4,4"/>
<!-- J -->
<g id="node1" class="node">
<title>J</title>
<g id="a_node1"><a xlink:title="J (Juvenile):&#10;	juvenile individuals">
<path fill="orange" stroke="black" d="M12,-105.5C12,-105.5 42,-105.5 42,-105.5 48,-105.5 54,-111.5 54,-117.5 54,-117.5 54,-129.5 54,-129.5 54,-135.5 48,-141.5 42,-141.5 42,-141.5 12,-141.5 12,-141.5 6,-141.5 0,-135.5 0,-129.5 0,-129.5 0,-117.5 0,-117.5 0,-111.5 6,-105.5 12,-105.5"/>
<text text-anchor="middle" x="27" y="-119.7" font-family="Arial" font-size="16.00">J</text>
</a>
</g>
</g>
<!-- A -->
<g id="node2" class="node">
<title>A</title>
<g id="a_node2"><a xlink:title="A (Adult):&#10;	adult individuals (producing new juveniles)">
<path fill="brown" stroke="black" d="M286,-88.5C286,-88.5 316,-88.5 316,-88.5 322,-88.5 328,-94.5 328,-100.5 328,-100.5 328,-112.5 328,-112.5 328,-118.5 322,-124.5 316,-124.5 316,-124.5 286,-124.5 286,-124.5 280,-124.5 274,-118.5 274,-112.5 274,-112.5 274,-100.5 274,-100.5 274,-94.5 280,-88.5 286,-88.5"/>
<text text-anchor="middle" x="301" y="-102.7" font-family="Arial" font-size="16.00">A</text>
</a>
</g>
</g>
<!-- J&#45;&gt;A -->
<g id="edge3" class="edge">
<title>J&#45;&gt;A</title>
<path fill="none" stroke="black" stroke-width="1.5" d="M54.08,-121.87C101.5,-118.91 202.18,-112.61 258.91,-109.07"/>
<polygon fill="black" stroke="black" stroke-width="1.5" points="264.24,-112.24 274,-108.13 263.8,-105.26 264.24,-112.24"/>
<polyline fill="none" stroke="black" stroke-width="1.5" points="264.02,-108.75 259.03,-109.06"/>
<g id="a_edge3&#45;label"><a xlink:title="m [parameter]:&#10;	maturation rate, at which juveniles become adults (/day) &#160;&#160;&#160;&#160;&#160;&#160;&#160;&#160;&#160;&#160;&#160;&#160;&#160;&#160;&#160;&#10;	1/50">
<text text-anchor="middle" x="138" y="-121.3" font-family="Times" font-size="14.00">rate: m</text>
</a>
</g>
</g>
<!-- D -->
<g id="node4" class="node">
<title>D</title>
<g id="a_node4"><a xlink:title="D (Dead):&#10;	compartment to put dead individuals">
<path fill="white" stroke="black" stroke-dasharray="1,5" d="M664,-88.5C664,-88.5 694,-88.5 694,-88.5 700,-88.5 706,-94.5 706,-100.5 706,-100.5 706,-112.5 706,-112.5 706,-118.5 700,-124.5 694,-124.5 694,-124.5 664,-124.5 664,-124.5 658,-124.5 652,-118.5 652,-112.5 652,-112.5 652,-100.5 652,-100.5 652,-94.5 658,-88.5 664,-88.5"/>
<text text-anchor="middle" x="679" y="-102.7" font-family="Arial" font-size="16.00">D</text>
</a>
</g>
</g>
<!-- J&#45;&gt;D -->
<g id="edge4" class="edge">
<title>J&#45;&gt;D</title>
<path fill="none" stroke="black" stroke-width="1.5" d="M46.16,-141.61C57.92,-151.4 74.14,-161.5 91,-161.5 91,-161.5 91,-161.5 615,-161.5 632.38,-161.5 647.29,-149.47 658.23,-136.66"/>
<polygon fill="black" stroke="black" stroke-width="1.5" points="664.2,-134.59 667.46,-124.51 658.62,-130.36 664.2,-134.59"/>
<polyline fill="none" stroke="black" stroke-width="1.5" points="661.41,-132.47 658.39,-136.46"/>
<g id="a_edge4&#45;label"><a xlink:title="rate: mu_J * total_H / K_H">
<text text-anchor="middle" x="301" y="-165.3" font-family="Times" font-size="14.00">rate: mu_J * total_H / K_H</text>
</a>
</g>
</g>
<!-- A&#45;&gt;J -->
<g id="edge2" class="edge">
<title>A&#45;&gt;J</title>
<path fill="none" stroke="black" stroke-width="1.5" stroke-dasharray="5,2" d="M273.91,-98.6C237.03,-88.6 167.72,-74.08 110,-86.5 95.8,-89.56 81.1,-95.27 68.13,-101.32"/>
<polygon fill="black" stroke="black" stroke-width="1.5" points="61.75,-100.58 54.34,-108.15 64.86,-106.85 61.75,-100.58"/>
<polyline fill="none" stroke="black" stroke-width="1.5" points="63.3,-103.71 67.78,-101.49"/>
<g id="a_edge2&#45;label"><a xlink:title="b_H [parameter]:&#10;	the birth rate of hosts (/day) &#160;&#160;&#160;&#160;&#160;&#160;&#160;&#160;&#160;&#160;&#160;&#160;&#160;&#160;&#160;&#160;&#160;&#160;&#160;&#160;&#160;&#160;&#160;&#160;&#160;&#160;&#160;&#160;&#160;&#160;&#160;&#160;&#160;&#160;&#160;&#160;&#160;&#160;&#160;&#160;&#160;&#10;	0.005">
<text text-anchor="middle" x="138" y="-90.3" font-family="Times" font-size="14.00">rate: b_H</text>
</a>
</g>
</g>
<!-- A&#45;&gt;D -->
<g id="edge1" class="edge">
<title>A&#45;&gt;D</title>
<path fill="none" stroke="black" stroke-width="1.5" d="M328.14,-106.5C392.43,-106.5 558.67,-106.5 636.57,-106.5"/>
<polygon fill="black" stroke="black" stroke-width="1.5" points="641.78,-110 651.78,-106.5 641.78,-103 641.78,-110"/>
<polyline fill="none" stroke="black" stroke-width="1.5" points="641.78,-106.5 636.78,-106.5"/>
<g id="a_edge1&#45;label"><a xlink:title="rate: mu_A * total_H / K_H">
<text text-anchor="middle" x="516" y="-110.3" font-family="Times" font-size="14.00">rate: mu_A * total_H / K_H</text>
</a>
</g>
</g>
<!-- U -->
<g id="node3" class="node">
<title>U</title>
<g id="a_node3"><a xlink:title="U (Undefined):&#10;	no age group is defined for vectors">
<path fill="lightgray" stroke="black" d="M286,-0.5C286,-0.5 316,-0.5 316,-0.5 322,-0.5 328,-6.5 328,-12.5 328,-12.5 328,-24.5 328,-24.5 328,-30.5 322,-36.5 316,-36.5 316,-36.5 286,-36.5 286,-36.5 280,-36.5 274,-30.5 274,-24.5 274,-24.5 274,-12.5 274,-12.5 274,-6.5 280,-0.5 286,-0.5"/>
<text text-anchor="middle" x="301" y="-14.7" font-family="Arial" font-size="16.00">U</text>
</a>
</g>
</g>
<!-- U&#45;&gt;U -->
<g id="edge6" class="edge">
<title>U&#45;&gt;U</title>
<path fill="none" stroke="black" stroke-width="1.5" stroke-dasharray="5,2" d="M283.74,-36.53C280.81,-46.19 286.56,-55 301,-55 306.87,-55 311.3,-53.55 314.3,-51.17"/>
<polygon fill="black" stroke="black" stroke-width="1.5" points="319.02,-47.1 318.26,-36.53 312.27,-45.27 319.02,-47.1"/>
<polyline fill="none" stroke="black" stroke-width="1.5" points="315.65,-46.18 314.34,-51.01"/>
<g id="a_edge6&#45;label"><a xlink:title="b_V [parameter]:&#10;	the birth rate of vectors (/day) &#160;&#160;&#160;&#160;&#160;&#160;&#160;&#160;&#160;&#160;&#160;&#160;&#160;&#160;&#160;&#160;&#160;&#160;&#160;&#160;&#160;&#160;&#160;&#160;&#160;&#160;&#160;&#160;&#160;&#160;&#160;&#160;&#160;&#160;&#160;&#160;&#160;&#160;&#160;&#10;	0.05">
<text text-anchor="middle" x="301" y="-58.8" font-family="Times" font-size="14.00">rate: b_V</text>
</a>
</g>
</g>
<!-- U&#45;&gt;D -->
<g id="edge5" class="edge">
<title>U&#45;&gt;D</title>
<path fill="none" stroke="black" stroke-width="1.5" d="M328.14,-24.62C392.57,-39.7 559.36,-78.73 637.06,-96.92"/>
<polygon fill="black" stroke="black" stroke-width="1.5" points="641.25,-101.49 651.78,-100.36 642.84,-94.68 641.25,-101.49"/>
<polyline fill="none" stroke="black" stroke-width="1.5" points="642.05,-98.09 637.18,-96.95"/>
<g id="a_edge5&#45;label"><a xlink:title="rate: b_V * total_V / K_V">
<text text-anchor="middle" x="516" y="-90.3" font-family="Times" font-size="14.00">rate: b_V * total_V / K_V</text>
</a>
</g>
</g>
</g>
</svg>
