<?xml version="1.0" encoding="UTF-8" standalone="no"?>
<!DOCTYPE svg PUBLIC "-//W3C//DTD SVG 1.1//EN"
 "http://www.w3.org/Graphics/SVG/1.1/DTD/svg11.dtd">
<!-- Generated by graphviz version 5.0.1 (20220820.1526)
 -->
<!-- Pages: 1 -->
<svg width="904pt" height="61pt"
 viewBox="0.00 0.00 904.00 61.00" xmlns="http://www.w3.org/2000/svg" xmlns:xlink="http://www.w3.org/1999/xlink">
<g id="graph0" class="graph" transform="scale(1 1) rotate(0) translate(4 57)">
<polygon fill="white" stroke="none" points="-4,4 -4,-57 900,-57 900,4 -4,4"/>
<!-- S -->
<g id="node1" class="node">
<title>S</title>
<g id="a_node1"><a xlink:title="S (Susceptible):&#10;	suceptible of becoming infected">
<path fill="deepskyblue" stroke="black" stroke-width="2" d="M12,-8.5C12,-8.5 42,-8.5 42,-8.5 48,-8.5 54,-14.5 54,-20.5 54,-20.5 54,-32.5 54,-32.5 54,-38.5 48,-44.5 42,-44.5 42,-44.5 12,-44.5 12,-44.5 6,-44.5 0,-38.5 0,-32.5 0,-32.5 0,-20.5 0,-20.5 0,-14.5 6,-8.5 12,-8.5"/>
<text text-anchor="middle" x="27" y="-22.7" font-family="Arial" font-size="16.00">S</text>
</a>
</g>
</g>
<!-- I -->
<g id="node2" class="node">
<title>I</title>
<g id="a_node2"><a xlink:title="I (Infectious):&#10;	infected and able to transmit the disease">
<path fill="red" stroke="black" d="M580,-0.5C580,-0.5 640,-0.5 640,-0.5 646,-0.5 652,-6.5 652,-12.5 652,-12.5 652,-40.5 652,-40.5 652,-46.5 646,-52.5 640,-52.5 640,-52.5 580,-52.5 580,-52.5 574,-52.5 568,-46.5 568,-40.5 568,-40.5 568,-12.5 568,-12.5 568,-6.5 574,-0.5 580,-0.5"/>
<text text-anchor="middle" x="582" y="-22.7" font-family="Arial" font-size="16.00">◆</text>
<polyline fill="none" stroke="black" points="596,-0.5 596,-52.5"/>
<text text-anchor="middle" x="610" y="-35.7" font-family="Arial" font-size="16.00">I </text>
<polyline fill="none" stroke="black" points="596,-26.5 624,-26.5"/>
<text text-anchor="middle" x="610" y="-9.7" font-family="Arial" font-size="16.00">◆</text>
<polyline fill="none" stroke="black" points="624,-0.5 624,-52.5"/>
<text text-anchor="middle" x="638" y="-22.7" font-family="Arial" font-size="16.00">◆</text>
</a>
</g>
</g>
<!-- S&#45;&gt;I -->
<g id="edge2" class="edge">
<title>S&#45;&gt;I</title>
<path fill="none" stroke="black" stroke-width="1.5" d="M54.09,-26.5C142.2,-26.5 429.99,-26.5 552.73,-26.5"/>
<polygon fill="black" stroke="black" stroke-width="1.5" points="557.88,-30 567.88,-26.5 557.88,-23 557.88,-30"/>
<polyline fill="none" stroke="black" stroke-width="1.5" points="557.88,-26.5 552.88,-26.5"/>
<g id="a_edge2&#45;label"><a xlink:title="rate: is_J * force_infection_juveniles + is_A * force_infection_adults">
<text text-anchor="middle" x="311" y="-30.3" font-family="Times" font-size="14.00">rate: is_J * force_infection_juveniles + is_A * force_infection_adults</text>
</a>
</g>
</g>
<!-- R -->
<g id="node3" class="node">
<title>R</title>
<g id="a_node3"><a xlink:title="R (Resistant):&#10;	recovered and resistant to new infections">
<path fill="limegreen" stroke="black" d="M854,-8.5C854,-8.5 884,-8.5 884,-8.5 890,-8.5 896,-14.5 896,-20.5 896,-20.5 896,-32.5 896,-32.5 896,-38.5 890,-44.5 884,-44.5 884,-44.5 854,-44.5 854,-44.5 848,-44.5 842,-38.5 842,-32.5 842,-32.5 842,-20.5 842,-20.5 842,-14.5 848,-8.5 854,-8.5"/>
<text text-anchor="middle" x="869" y="-22.7" font-family="Arial" font-size="16.00">R</text>
</a>
</g>
</g>
<!-- I&#45;&gt;R -->
<g id="edge1" class="edge">
<title>I&#45;&gt;R</title>
<path fill="none" stroke="black" stroke-width="1.5" d="M652.01,-26.5C699.88,-26.5 778.61,-26.5 826.63,-26.5"/>
<polygon fill="black" stroke="black" stroke-width="1.5" points="831.66,-30 841.66,-26.5 831.66,-23 831.66,-30"/>
<polyline fill="none" stroke="black" stroke-width="1.5" points="831.66,-26.5 826.66,-26.5"/>
<g id="a_edge1&#45;label"><a xlink:title="gamma [parameter]:&#10;	recovery rate &#160;&#160;&#160;&#160;&#160;&#160;&#160;&#160;&#160;&#160;&#160;&#160;&#160;&#160;&#160;&#160;&#160;&#160;&#160;&#160;&#160;&#160;&#160;&#160;&#160;&#160;&#160;&#160;&#160;&#160;&#160;&#160;&#160;&#160;&#160;&#160;&#160;&#160;&#160;&#160;&#160;&#160;&#160;&#160;&#160;&#160;&#160;&#160;&#160;&#160;&#160;&#160;&#160;&#160;&#160;&#160;&#160;&#160;&#10;	1/30">
<text text-anchor="middle" x="747" y="-30.3" font-family="Times" font-size="14.00">rate: gamma</text>
</a>
</g>
</g>
</g>
</svg>
