<?xml version="1.0" encoding="UTF-8" standalone="no"?>
<!DOCTYPE svg PUBLIC "-//W3C//DTD SVG 1.1//EN"
 "http://www.w3.org/Graphics/SVG/1.1/DTD/svg11.dtd">
<!-- Generated by graphviz version 5.0.1 (20220820.1526)
 -->
<!-- Pages: 1 -->
<svg width="1813pt" height="315pt"
 viewBox="0.00 0.00 1813.00 315.00" xmlns="http://www.w3.org/2000/svg" xmlns:xlink="http://www.w3.org/1999/xlink">
<g id="graph0" class="graph" transform="scale(1 1) rotate(0) translate(4 311)">
<polygon fill="white" stroke="none" points="-4,4 -4,-311 1809,-311 1809,4 -4,4"/>
<!-- M -->
<g id="node1" class="node">
<title>M</title>
<g id="a_node1"><a xlink:title="M (Maternal protection):&#10;	animal protected by maternal antibodies">
<path fill="cyan" stroke="black" d="M12,-1C12,-1 42,-1 42,-1 48,-1 54,-7 54,-13 54,-13 54,-25 54,-25 54,-31 48,-37 42,-37 42,-37 12,-37 12,-37 6,-37 0,-31 0,-25 0,-25 0,-13 0,-13 0,-7 6,-1 12,-1"/>
<text text-anchor="middle" x="27" y="-15.2" font-family="Arial" font-size="16.00">M ◷</text>
</a>
</g>
</g>
<!-- S -->
<g id="node2" class="node">
<title>S</title>
<g id="a_node2"><a xlink:title="S (Susceptible):&#10;	suceptible of becoming infectious">
<path fill="wheat" stroke="black" stroke-width="2" d="M252,-46C252,-46 282,-46 282,-46 288,-46 294,-52 294,-58 294,-58 294,-70 294,-70 294,-76 288,-82 282,-82 282,-82 252,-82 252,-82 246,-82 240,-76 240,-70 240,-70 240,-58 240,-58 240,-52 246,-46 252,-46"/>
<text text-anchor="middle" x="267" y="-60.2" font-family="Arial" font-size="16.00">S</text>
</a>
</g>
</g>
<!-- M&#45;&gt;S -->
<g id="edge7" class="edge">
<title>M&#45;&gt;S</title>
<path fill="none" stroke="black" stroke-width="1.5" d="M54.38,-23.99C95.68,-31.8 175.93,-46.97 224.87,-56.22"/>
<polygon fill="black" stroke="black" stroke-width="1.5" points="229.39,-60.64 239.87,-59.06 230.69,-53.76 229.39,-60.64"/>
<polyline fill="none" stroke="black" stroke-width="1.5" points="230.04,-57.2 225.13,-56.27"/>
<g id="a_edge7&#45;label"><a xlink:title="epsilon [parameter]:&#10;	maternal antibodies loss rate &#160;&#160;&#160;&#160;&#160;&#160;&#160;&#160;&#160;&#160;&#160;&#160;&#160;&#160;&#160;&#160;&#160;&#160;&#160;&#160;&#160;&#160;&#160;&#160;&#160;&#160;&#160;&#160;&#160;&#160;&#160;&#160;&#160;&#160;&#160;&#160;&#160;&#160;&#160;&#160;&#160;&#160;&#10;	0.04">
<text text-anchor="middle" x="147" y="-52.8" font-family="Times" font-size="14.00">rate: epsilon</text>
</a>
</g>
</g>
<!-- D -->
<g id="node7" class="node">
<title>D</title>
<g id="a_node7"><a xlink:title="D (Dead):&#10;	dead animals">
<path fill="white" stroke="black" stroke-dasharray="1,5" d="M1763,-90C1763,-90 1793,-90 1793,-90 1799,-90 1805,-96 1805,-102 1805,-102 1805,-114 1805,-114 1805,-120 1799,-126 1793,-126 1793,-126 1763,-126 1763,-126 1757,-126 1751,-120 1751,-114 1751,-114 1751,-102 1751,-102 1751,-96 1757,-90 1763,-90"/>
<text text-anchor="middle" x="1778" y="-104.2" font-family="Arial" font-size="16.00">D</text>
</a>
</g>
</g>
<!-- M&#45;&gt;D -->
<g id="edge6" class="edge">
<title>M&#45;&gt;D</title>
<g id="a_edge6"><a xlink:title="ESCAPE: True">
<path fill="none" stroke="black" stroke-width="1.5" d="M68.57,-3.03C75.92,-1.21 83.61,0 91,0 91,0 91,0 1714,0 1749.1,0 1764.99,-43.08 1771.94,-74.82"/>
<polyline fill="none" stroke="black" stroke-width="1.5" points="54.14,-7.4 58.93,-5.95"/>
<polygon fill="none" stroke="black" stroke-width="1.5" points="57.91,-2.6 68.5,-3.05 59.94,-9.3 57.91,-2.6"/>
<polygon fill="black" stroke="black" stroke-width="1.5" points="1769.45,-80.5 1774.74,-89.68 1776.33,-79.2 1769.45,-80.5"/>
<polyline fill="none" stroke="black" stroke-width="1.5" points="1772.89,-79.85 1771.96,-74.94"/>
</a>
</g>
<g id="a_edge6&#45;label"><a xlink:title="mortality_healthy [parameter]:&#10;	mortality rate for healthy animals &#160;&#160;&#160;&#160;&#160;&#160;&#160;&#160;&#160;&#160;&#160;&#160;&#160;&#160;&#160;&#160;&#160;&#160;&#160;&#160;&#160;&#160;&#160;&#160;&#160;&#160;&#160;&#160;&#160;&#160;&#160;&#160;&#160;&#160;&#160;&#160;&#160;&#10;	0.002">
<text text-anchor="middle" x="738" y="-3.8" font-family="Times" font-size="14.00">rate: mortality_healthy</text>
</a>
</g>
</g>
<!-- E -->
<g id="node3" class="node">
<title>E</title>
<g id="a_node3"><a xlink:title="E (Exposed):&#10;	already infected but not yet able to transmit the disease">
<path fill="lightcoral" stroke="black" d="M453,-72C453,-72 483,-72 483,-72 489,-72 495,-78 495,-84 495,-84 495,-96 495,-96 495,-102 489,-108 483,-108 483,-108 453,-108 453,-108 447,-108 441,-102 441,-96 441,-96 441,-84 441,-84 441,-78 447,-72 453,-72"/>
<text text-anchor="middle" x="468" y="-86.2" font-family="Arial" font-size="16.00">E ◷</text>
</a>
</g>
</g>
<!-- S&#45;&gt;E -->
<g id="edge13" class="edge">
<title>S&#45;&gt;E</title>
<path fill="none" stroke="black" stroke-width="1.5" d="M294.02,-67.4C327.61,-71.79 386.46,-79.48 426.07,-84.65"/>
<polygon fill="black" stroke="black" stroke-width="1.5" points="430.61,-88.78 440.98,-86.6 431.52,-81.83 430.61,-88.78"/>
<polyline fill="none" stroke="black" stroke-width="1.5" points="431.06,-85.3 426.1,-84.66"/>
<g id="a_edge13&#45;label"><a xlink:title="f [parameter]:&#10;	force of infection &#160;&#160;&#160;&#160;&#160;&#160;&#160;&#160;&#160;&#160;&#160;&#160;&#160;&#160;&#160;&#160;&#160;&#160;&#160;&#160;&#160;&#160;&#160;&#160;&#160;&#160;&#160;&#160;&#160;&#160;&#160;&#160;&#160;&#160;&#160;&#160;&#160;&#160;&#160;&#160;&#160;&#160;&#160;&#160;&#160;&#160;&#160;&#160;&#160;&#160;&#160;&#160;&#160;&#10;	beta * total_I / total_herd">
<text text-anchor="middle" x="367.5" y="-83.8" font-family="Times" font-size="14.00">rate: f</text>
</a>
</g>
</g>
<!-- S&#45;&gt;D -->
<g id="edge12" class="edge">
<title>S&#45;&gt;D</title>
<path fill="none" stroke="black" stroke-width="1.5" d="M294.03,-51.18C305.15,-46.81 318.43,-43 331,-43 331,-43 331,-43 1714,-43 1734.5,-43 1750.47,-59.88 1761.2,-76.44"/>
<polygon fill="black" stroke="black" stroke-width="1.5" points="1760.94,-82.98 1768.97,-89.89 1767,-79.48 1760.94,-82.98"/>
<polyline fill="none" stroke="black" stroke-width="1.5" points="1763.97,-81.23 1761.47,-76.9"/>
<g id="a_edge12&#45;label"><a xlink:title="mortality_healthy [parameter]:&#10;	mortality rate for healthy animals &#160;&#160;&#160;&#160;&#160;&#160;&#160;&#160;&#160;&#160;&#160;&#160;&#160;&#160;&#160;&#160;&#160;&#160;&#160;&#160;&#160;&#160;&#160;&#160;&#160;&#160;&#160;&#160;&#160;&#160;&#160;&#160;&#160;&#160;&#160;&#160;&#160;&#10;	0.002">
<text text-anchor="middle" x="928" y="-46.8" font-family="Times" font-size="14.00">rate: mortality_healthy</text>
</a>
</g>
</g>
<!-- I -->
<g id="node4" class="node">
<title>I</title>
<g id="a_node4"><a xlink:title="I (Infectious):&#10;	sick and able to transmit the disease">
<path fill="maroon" stroke="black" d="M723,-144C723,-144 753,-144 753,-144 759,-144 765,-150 765,-156 765,-156 765,-168 765,-168 765,-174 759,-180 753,-180 753,-180 723,-180 723,-180 717,-180 711,-174 711,-168 711,-168 711,-156 711,-156 711,-150 717,-144 723,-144"/>
<text text-anchor="middle" x="738" y="-158.2" font-family="Arial" font-size="16.00">I</text>
</a>
</g>
</g>
<!-- E&#45;&gt;I -->
<g id="edge2" class="edge">
<title>E&#45;&gt;I</title>
<path fill="none" stroke="black" stroke-width="1.5" d="M495.02,-97.83C500.92,-99.56 507.17,-101.37 513,-103 576.75,-120.81 651.12,-140.11 696.1,-151.62"/>
<polygon fill="black" stroke="black" stroke-width="1.5" points="700.17,-156.27 710.72,-155.35 701.9,-149.48 700.17,-156.27"/>
<polyline fill="none" stroke="black" stroke-width="1.5" points="701.03,-152.88 696.19,-151.64"/>
<g id="a_edge2&#45;label"><a xlink:title="alpha [parameter]:&#10;	rate for E&#45;&gt;I transition &#160;&#160;&#160;&#160;&#160;&#160;&#160;&#160;&#160;&#160;&#160;&#160;&#160;&#160;&#160;&#160;&#160;&#160;&#160;&#160;&#160;&#160;&#160;&#160;&#160;&#160;&#160;&#160;&#160;&#160;&#160;&#160;&#160;&#160;&#160;&#160;&#160;&#160;&#160;&#160;&#160;&#160;&#160;&#160;&#160;&#160;&#160;&#10;	0.3">
<text text-anchor="middle" x="583" y="-134.8" font-family="Times" font-size="14.00">rate: alpha</text>
</a>
</g>
</g>
<!-- E&#45;&gt;D -->
<g id="edge1" class="edge">
<title>E&#45;&gt;D</title>
<g id="a_edge1"><a xlink:title="ESCAPE: True">
<path fill="none" stroke="black" stroke-width="1.5" d="M510.28,-89.16C517.52,-89.06 524.98,-89 532,-89 532,-89 532,-89 1714,-89 1721.39,-89 1729.08,-90.21 1736.43,-92.03"/>
<polyline fill="none" stroke="black" stroke-width="1.5" points="495.05,-89.4 500.05,-89.32"/>
<polygon fill="none" stroke="black" stroke-width="1.5" points="500,-85.82 510.05,-89.16 500.11,-92.82 500,-85.82"/>
<polygon fill="black" stroke="black" stroke-width="1.5" points="1740.27,-96.85 1750.86,-96.4 1742.3,-90.15 1740.27,-96.85"/>
<polyline fill="none" stroke="black" stroke-width="1.5" points="1741.28,-93.5 1736.5,-92.05"/>
</a>
</g>
<g id="a_edge1&#45;label"><a xlink:title="mortality_sick [parameter]:&#10;	mortality rate for sick animals (E / I / Q) &#160;&#160;&#160;&#160;&#160;&#160;&#160;&#160;&#160;&#160;&#160;&#160;&#160;&#160;&#160;&#160;&#160;&#160;&#160;&#160;&#160;&#160;&#160;&#160;&#160;&#160;&#160;&#160;&#10;	0.004">
<text text-anchor="middle" x="1108" y="-92.8" font-family="Times" font-size="14.00">rate: mortality_sick</text>
</a>
</g>
</g>
<!-- R -->
<g id="node5" class="node">
<title>R</title>
<g id="a_node5"><a xlink:title="R (Resistant):&#10;	healthy again and resistant to infection">
<path fill="deepskyblue" stroke="black" d="M1433,-219C1433,-219 1463,-219 1463,-219 1469,-219 1475,-225 1475,-231 1475,-231 1475,-243 1475,-243 1475,-249 1469,-255 1463,-255 1463,-255 1433,-255 1433,-255 1427,-255 1421,-249 1421,-243 1421,-243 1421,-231 1421,-231 1421,-225 1427,-219 1433,-219"/>
<text text-anchor="middle" x="1448" y="-233.2" font-family="Arial" font-size="16.00">R</text>
</a>
</g>
</g>
<!-- I&#45;&gt;R -->
<g id="edge5" class="edge">
<title>I&#45;&gt;R</title>
<path fill="none" stroke="black" stroke-width="1.5" d="M749.43,-180.03C765.69,-205.51 799.63,-249 842,-249 842,-249 842,-249 1354,-249 1370.97,-249 1389.54,-247.01 1405.6,-244.65"/>
<polygon fill="black" stroke="black" stroke-width="1.5" points="1411.34,-247.27 1420.66,-242.23 1410.23,-240.36 1411.34,-247.27"/>
<polyline fill="none" stroke="black" stroke-width="1.5" points="1410.79,-243.82 1405.85,-244.61"/>
<g id="a_edge5&#45;label"><a xlink:title="gamma [parameter]:&#10;	recovery rate &#160;&#160;&#160;&#160;&#160;&#160;&#160;&#160;&#160;&#160;&#160;&#160;&#160;&#160;&#160;&#160;&#160;&#160;&#160;&#160;&#160;&#160;&#160;&#160;&#160;&#160;&#160;&#160;&#160;&#160;&#160;&#160;&#160;&#160;&#160;&#160;&#160;&#160;&#160;&#160;&#160;&#160;&#160;&#160;&#160;&#160;&#160;&#160;&#160;&#160;&#160;&#160;&#160;&#160;&#160;&#160;&#160;&#160;&#10;	0.01">
<text text-anchor="middle" x="1108" y="-252.8" font-family="Times" font-size="14.00">rate: gamma</text>
</a>
</g>
</g>
<!-- Q -->
<g id="node6" class="node">
<title>Q</title>
<g id="a_node6"><a xlink:title="Q (Quarantine):&#10;	sick animals that are put aside for a while">
<path fill="green" stroke="black" d="M1093,-161C1093,-161 1123,-161 1123,-161 1129,-161 1135,-167 1135,-173 1135,-173 1135,-185 1135,-185 1135,-191 1129,-197 1123,-197 1123,-197 1093,-197 1093,-197 1087,-197 1081,-191 1081,-185 1081,-185 1081,-173 1081,-173 1081,-167 1087,-161 1093,-161"/>
<text text-anchor="middle" x="1108" y="-175.2" font-family="Arial" font-size="16.00">Q ◷</text>
</a>
</g>
</g>
<!-- I&#45;&gt;Q -->
<g id="edge4" class="edge">
<title>I&#45;&gt;Q</title>
<g id="a_edge4"><a xlink:title="WHEN: quarantine_period">
<path fill="none" stroke="black" stroke-width="1.5" d="M778.18,-163.81C848.1,-167.04 993.76,-173.77 1065.39,-177.08"/>
<polyline fill="none" stroke="black" stroke-width="1.5" points="765.17,-163.21 770.17,-163.44"/>
<ellipse fill="none" stroke="black" stroke-width="1.5" cx="774.16" cy="-163.62" rx="4" ry="4"/>
<polygon fill="black" stroke="black" stroke-width="1.5" points="1070.57,-180.82 1080.72,-177.79 1070.89,-173.83 1070.57,-180.82"/>
<polyline fill="none" stroke="black" stroke-width="1.5" points="1070.73,-177.32 1065.73,-177.09"/>
</a>
</g>
<g id="a_edge4&#45;label"><a xlink:title="detection [parameter]:&#10;	rate at which animals are detected sick (falls to 0 if quarantine zone is full) &#10;	0.01*room_in_quarantine">
<text text-anchor="middle" x="928" y="-177.8" font-family="Times" font-size="14.00">rate: detection</text>
</a>
</g>
</g>
<!-- I&#45;&gt;D -->
<g id="edge3" class="edge">
<title>I&#45;&gt;D</title>
<path fill="none" stroke="black" stroke-width="1.5" d="M765.07,-149.97C785.54,-141.62 814.99,-132 842,-132 842,-132 842,-132 1109,-132 1259.24,-132 1296.76,-127 1447,-127 1447,-127 1447,-127 1714,-127 1721.39,-127 1729.08,-125.79 1736.43,-123.97"/>
<polygon fill="black" stroke="black" stroke-width="1.5" points="1742.3,-125.85 1750.86,-119.6 1740.27,-119.15 1742.3,-125.85"/>
<polyline fill="none" stroke="black" stroke-width="1.5" points="1741.28,-122.5 1736.5,-123.95"/>
<g id="a_edge3&#45;label"><a xlink:title="mortality_sick [parameter]:&#10;	mortality rate for sick animals (E / I / Q) &#160;&#160;&#160;&#160;&#160;&#160;&#160;&#160;&#160;&#160;&#160;&#160;&#160;&#160;&#160;&#160;&#160;&#160;&#160;&#160;&#160;&#160;&#160;&#160;&#160;&#160;&#160;&#160;&#10;	0.004">
<text text-anchor="middle" x="1278" y="-134.8" font-family="Times" font-size="14.00">rate: mortality_sick</text>
</a>
</g>
</g>
<!-- R&#45;&gt;S -->
<g id="edge11" class="edge">
<title>R&#45;&gt;S</title>
<path fill="none" stroke="black" stroke-width="1.5" d="M1429.58,-255.01C1412.12,-271.05 1383.64,-292 1354,-292 331,-292 331,-292 331,-292 291.13,-292 275.5,-160.86 270.27,-97.49"/>
<polygon fill="black" stroke="black" stroke-width="1.5" points="273.36,-91.98 269.11,-82.27 266.38,-92.51 273.36,-91.98"/>
<polyline fill="none" stroke="black" stroke-width="1.5" points="269.87,-92.24 270.25,-97.23"/>
<g id="a_edge11&#45;label"><a xlink:title="delta [parameter]:&#10;	resistance loss rate &#160;&#160;&#160;&#160;&#160;&#160;&#160;&#160;&#160;&#160;&#160;&#160;&#160;&#160;&#160;&#160;&#160;&#160;&#160;&#160;&#160;&#160;&#160;&#160;&#160;&#160;&#160;&#160;&#160;&#160;&#160;&#160;&#160;&#160;&#160;&#160;&#160;&#160;&#160;&#160;&#160;&#160;&#160;&#160;&#160;&#160;&#160;&#160;&#160;&#160;&#160;&#10;	0.01">
<text text-anchor="middle" x="738" y="-295.8" font-family="Times" font-size="14.00">rate: delta</text>
</a>
</g>
</g>
<!-- R&#45;&gt;D -->
<g id="edge10" class="edge">
<title>R&#45;&gt;D</title>
<path fill="none" stroke="black" stroke-width="1.5" d="M1475.31,-239.42C1529.05,-242.98 1653.05,-243.89 1733,-187 1748.87,-175.71 1759.69,-156.82 1766.63,-140.34"/>
<polygon fill="black" stroke="black" stroke-width="1.5" points="1771.71,-136.76 1771.94,-126.17 1765.15,-134.3 1771.71,-136.76"/>
<polyline fill="none" stroke="black" stroke-width="1.5" points="1768.43,-135.53 1766.67,-140.21"/>
<g id="a_edge10&#45;label"><a xlink:title="mortality_healthy [parameter]:&#10;	mortality rate for healthy animals &#160;&#160;&#160;&#160;&#160;&#160;&#160;&#160;&#160;&#160;&#160;&#160;&#160;&#160;&#160;&#160;&#160;&#160;&#160;&#160;&#160;&#160;&#160;&#160;&#160;&#160;&#160;&#160;&#160;&#160;&#160;&#160;&#160;&#160;&#160;&#160;&#160;&#10;	0.002">
<text text-anchor="middle" x="1628" y="-243.8" font-family="Times" font-size="14.00">rate: mortality_healthy</text>
</a>
</g>
</g>
<!-- Q&#45;&gt;R -->
<g id="edge9" class="edge">
<title>Q&#45;&gt;R</title>
<path fill="none" stroke="black" stroke-width="1.5" d="M1135.24,-183.5C1193.66,-193.53 1334.85,-217.76 1405.41,-229.86"/>
<polygon fill="black" stroke="black" stroke-width="1.5" points="1410.09,-234.22 1420.54,-232.46 1411.28,-227.32 1410.09,-234.22"/>
<polyline fill="none" stroke="black" stroke-width="1.5" points="1410.69,-230.77 1405.76,-229.92"/>
<g id="a_edge9&#45;label"><a xlink:title="proba: 1">
<text text-anchor="middle" x="1278" y="-221.8" font-family="Times" font-size="14.00">proba: 1</text>
</a>
</g>
</g>
<!-- Q&#45;&gt;D -->
<g id="edge8" class="edge">
<title>Q&#45;&gt;D</title>
<g id="a_edge8"><a xlink:title="ESCAPE: True">
<path fill="none" stroke="black" stroke-width="1.5" d="M1150.17,-175.2C1166.31,-174.01 1185.01,-173 1202,-173 1202,-173 1202,-173 1714,-173 1734.5,-173 1750.47,-156.12 1761.2,-139.56"/>
<polyline fill="none" stroke="black" stroke-width="1.5" points="1135.03,-176.42 1140.01,-176.02"/>
<polygon fill="none" stroke="black" stroke-width="1.5" points="1139.73,-172.53 1149.98,-175.22 1140.29,-179.51 1139.73,-172.53"/>
<polygon fill="black" stroke="black" stroke-width="1.5" points="1767,-136.52 1768.97,-126.11 1760.94,-133.02 1767,-136.52"/>
<polyline fill="none" stroke="black" stroke-width="1.5" points="1763.97,-134.77 1761.47,-139.1"/>
</a>
</g>
<g id="a_edge8&#45;label"><a xlink:title="mortality_sick [parameter]:&#10;	mortality rate for sick animals (E / I / Q) &#160;&#160;&#160;&#160;&#160;&#160;&#160;&#160;&#160;&#160;&#160;&#160;&#160;&#160;&#160;&#160;&#160;&#160;&#160;&#160;&#160;&#160;&#160;&#160;&#160;&#160;&#160;&#160;&#10;	0.004">
<text text-anchor="middle" x="1448" y="-176.8" font-family="Times" font-size="14.00">rate: mortality_sick</text>
</a>
</g>
</g>
</g>
</svg>
