<?xml version="1.0" encoding="UTF-8" standalone="no"?>
<!DOCTYPE svg PUBLIC "-//W3C//DTD SVG 1.1//EN"
 "http://www.w3.org/Graphics/SVG/1.1/DTD/svg11.dtd">
<!-- Generated by graphviz version 5.0.1 (20220820.1526)
 -->
<!-- Pages: 1 -->
<svg width="274pt" height="61pt"
 viewBox="0.00 0.00 274.00 61.00" xmlns="http://www.w3.org/2000/svg" xmlns:xlink="http://www.w3.org/1999/xlink">
<g id="graph0" class="graph" transform="scale(1 1) rotate(0) translate(4 57)">
<polygon fill="white" stroke="none" points="-4,4 -4,-57 270,-57 270,4 -4,4"/>
<!-- J -->
<g id="node1" class="node">
<title>J</title>
<g id="a_node1"><a xlink:title="J (Juvenile):&#10;	juvenile animals">
<path fill="orange" stroke="black" stroke-width="2" d="M12,-0.5C12,-0.5 42,-0.5 42,-0.5 48,-0.5 54,-6.5 54,-12.5 54,-12.5 54,-40.5 54,-40.5 54,-46.5 48,-52.5 42,-52.5 42,-52.5 12,-52.5 12,-52.5 6,-52.5 0,-46.5 0,-40.5 0,-40.5 0,-12.5 0,-12.5 0,-6.5 6,-0.5 12,-0.5"/>
<text text-anchor="middle" x="27" y="-35.7" font-family="Arial" font-size="16.00">J </text>
<polyline fill="none" stroke="black" stroke-width="2" points="0,-26.5 54,-26.5"/>
<text text-anchor="middle" x="27" y="-9.7" font-family="Arial" font-size="16.00">◆</text>
</a>
</g>
</g>
<!-- A -->
<g id="node2" class="node">
<title>A</title>
<g id="a_node2"><a xlink:title="A (Adult):&#10;	adult animals">
<path fill="brown" stroke="black" d="M224,-0.5C224,-0.5 254,-0.5 254,-0.5 260,-0.5 266,-6.5 266,-12.5 266,-12.5 266,-40.5 266,-40.5 266,-46.5 260,-52.5 254,-52.5 254,-52.5 224,-52.5 224,-52.5 218,-52.5 212,-46.5 212,-40.5 212,-40.5 212,-12.5 212,-12.5 212,-6.5 218,-0.5 224,-0.5"/>
<text text-anchor="middle" x="239" y="-35.7" font-family="Arial" font-size="16.00">A </text>
<polyline fill="none" stroke="black" points="212,-26.5 266,-26.5"/>
<text text-anchor="middle" x="239" y="-9.7" font-family="Arial" font-size="16.00">◆</text>
</a>
</g>
</g>
<!-- J&#45;&gt;A -->
<g id="edge1" class="edge">
<title>J&#45;&gt;A</title>
<g id="a_edge1"><a xlink:title="COND: GreaterThan(age, adult_age)">
<path fill="none" stroke="black" stroke-width="1.5" d="M64.26,-26.5C101.15,-26.5 158.22,-26.5 196.79,-26.5"/>
<polyline fill="none" stroke="black" stroke-width="1.5" points="54.17,-26.5 59.17,-26.5"/>
<polygon fill="black" stroke="black" stroke-width="1.5" points="60.17,-31.5 60.17,-21.5 62.17,-21.5 62.17,-31.5 60.17,-31.5"/>
<polyline fill="none" stroke="black" stroke-width="1.5" points="59.17,-26.5 64.17,-26.5"/>
<polygon fill="black" stroke="black" stroke-width="1.5" points="201.83,-30 211.83,-26.5 201.83,-23 201.83,-30"/>
<polyline fill="none" stroke="black" stroke-width="1.5" points="201.83,-26.5 196.83,-26.5"/>
</a>
</g>
<g id="a_edge1&#45;label"><a xlink:title="proba: 1">
<text text-anchor="middle" x="133" y="-30.3" font-family="Times,serif" font-size="14.00">proba: 1</text>
</a>
</g>
</g>
</g>
</svg>
