<?xml version="1.0" encoding="UTF-8" standalone="no"?>
<!DOCTYPE svg PUBLIC "-//W3C//DTD SVG 1.1//EN"
 "http://www.w3.org/Graphics/SVG/1.1/DTD/svg11.dtd">
<!-- Generated by graphviz version 5.0.1 (20220820.1526)
 -->
<!-- Pages: 1 -->
<svg width="544pt" height="83pt"
 viewBox="0.00 0.00 544.00 83.00" xmlns="http://www.w3.org/2000/svg" xmlns:xlink="http://www.w3.org/1999/xlink">
<g id="graph0" class="graph" transform="scale(1 1) rotate(0) translate(4 79)">
<polygon fill="white" stroke="none" points="-4,4 -4,-79 540,-79 540,4 -4,4"/>
<!-- J -->
<g id="node1" class="node">
<title>J</title>
<g id="a_node1"><a xlink:title="J (Juvenile):&#10;	juvenile animals">
<path fill="orange" stroke="black" d="M12,-20C12,-20 42,-20 42,-20 48,-20 54,-26 54,-32 54,-32 54,-44 54,-44 54,-50 48,-56 42,-56 42,-56 12,-56 12,-56 6,-56 0,-50 0,-44 0,-44 0,-32 0,-32 0,-26 6,-20 12,-20"/>
<text text-anchor="middle" x="27" y="-34.2" font-family="Arial" font-size="16.00">J</text>
</a>
</g>
</g>
<!-- A -->
<g id="node2" class="node">
<title>A</title>
<g id="a_node2"><a xlink:title="A (Adult):&#10;	adult animals (producing new juveniles)">
<path fill="brown" stroke="black" d="M268,-34C268,-34 298,-34 298,-34 304,-34 310,-40 310,-46 310,-46 310,-58 310,-58 310,-64 304,-70 298,-70 298,-70 268,-70 268,-70 262,-70 256,-64 256,-58 256,-58 256,-46 256,-46 256,-40 262,-34 268,-34"/>
<text text-anchor="middle" x="283" y="-48.2" font-family="Arial" font-size="16.00">A</text>
</a>
</g>
</g>
<!-- J&#45;&gt;A -->
<g id="edge3" class="edge">
<title>J&#45;&gt;A</title>
<path fill="none" stroke="black" stroke-width="1.5" d="M54.26,-36.96C87.71,-35.9 147.25,-34.95 198,-39 211.96,-40.11 227.11,-42.19 240.65,-44.36"/>
<polygon fill="black" stroke="black" stroke-width="1.5" points="245.19,-48.68 255.64,-46.9 246.36,-41.78 245.19,-48.68"/>
<polyline fill="none" stroke="black" stroke-width="1.5" points="245.78,-45.23 240.85,-44.39"/>
<g id="a_edge3&#45;label"><a xlink:title="maturation [parameter]:&#10;	rate at which juveniles become adults (/day) &#160;&#160;&#160;&#160;&#160;&#160;&#160;&#160;&#160;&#160;&#160;&#160;&#160;&#160;&#160;&#160;&#160;&#160;&#160;&#160;&#160;&#160;&#160;&#160;&#160;&#160;&#160;&#10;	1/20">
<text text-anchor="middle" x="154" y="-42.8" font-family="Times,serif" font-size="14.00">rate: maturation</text>
</a>
</g>
</g>
<!-- D -->
<g id="node3" class="node">
<title>D</title>
<g id="a_node3"><a xlink:title="D (Dead):&#10;	compartment to put dead animals">
<path fill="white" stroke="black" stroke-dasharray="1,5" d="M494,-1C494,-1 524,-1 524,-1 530,-1 536,-7 536,-13 536,-13 536,-25 536,-25 536,-31 530,-37 524,-37 524,-37 494,-37 494,-37 488,-37 482,-31 482,-25 482,-25 482,-13 482,-13 482,-7 488,-1 494,-1"/>
<text text-anchor="middle" x="509" y="-15.2" font-family="Arial" font-size="16.00">D</text>
</a>
</g>
</g>
<!-- J&#45;&gt;D -->
<g id="edge4" class="edge">
<title>J&#45;&gt;D</title>
<path fill="none" stroke="black" stroke-width="1.5" d="M46.16,-19.89C57.92,-10.1 74.14,0 91,0 91,0 91,0 445,0 452.39,0 460.08,-1.21 467.43,-3.03"/>
<polygon fill="black" stroke="black" stroke-width="1.5" points="471.27,-7.85 481.86,-7.4 473.3,-1.15 471.27,-7.85"/>
<polyline fill="none" stroke="black" stroke-width="1.5" points="472.28,-4.5 467.5,-3.05"/>
<g id="a_edge4&#45;label"><a xlink:title="death [parameter]:&#10;	the death rate (/day) &#160;&#160;&#160;&#160;&#160;&#160;&#160;&#160;&#160;&#160;&#160;&#160;&#160;&#160;&#160;&#160;&#160;&#160;&#160;&#160;&#160;&#160;&#160;&#160;&#160;&#160;&#160;&#160;&#160;&#160;&#160;&#160;&#160;&#160;&#160;&#160;&#160;&#160;&#160;&#160;&#160;&#160;&#160;&#160;&#160;&#160;&#160;&#160;&#160;&#160;&#10;	birth">
<text text-anchor="middle" x="283" y="-3.8" font-family="Times,serif" font-size="14.00">rate: death</text>
</a>
</g>
</g>
<!-- A&#45;&gt;J -->
<g id="edge2" class="edge">
<title>A&#45;&gt;J</title>
<path fill="none" stroke="black" stroke-width="1.5" stroke-dasharray="5,2" d="M255.87,-54.98C215.88,-58.88 137.28,-63.9 72,-52 71,-51.82 69.98,-51.62 68.97,-51.4"/>
<polygon fill="black" stroke="black" stroke-width="1.5" points="64.81,-46.7 54.25,-47.55 63.04,-53.47 64.81,-46.7"/>
<polyline fill="none" stroke="black" stroke-width="1.5" points="63.92,-50.08 68.76,-51.35"/>
<g id="a_edge2&#45;label"><a xlink:title="birth [parameter]:&#10;	the birth rate (/day) &#160;&#160;&#160;&#160;&#160;&#160;&#160;&#160;&#160;&#160;&#160;&#160;&#160;&#160;&#160;&#160;&#160;&#160;&#160;&#160;&#160;&#160;&#160;&#160;&#160;&#160;&#160;&#160;&#160;&#160;&#160;&#160;&#160;&#160;&#160;&#160;&#160;&#160;&#160;&#160;&#160;&#160;&#160;&#160;&#160;&#160;&#160;&#160;&#160;&#160;&#10;	0.01">
<text text-anchor="middle" x="154" y="-63.8" font-family="Times,serif" font-size="14.00">rate: birth</text>
</a>
</g>
</g>
<!-- A&#45;&gt;D -->
<g id="edge1" class="edge">
<title>A&#45;&gt;D</title>
<path fill="none" stroke="black" stroke-width="1.5" d="M310.13,-48.15C348.64,-42.48 420.99,-31.82 466.72,-25.08"/>
<polygon fill="black" stroke="black" stroke-width="1.5" points="472.3,-27.8 481.69,-22.88 471.28,-20.87 472.3,-27.8"/>
<polyline fill="none" stroke="black" stroke-width="1.5" points="471.79,-24.33 466.85,-25.06"/>
<g id="a_edge1&#45;label"><a xlink:title="death [parameter]:&#10;	the death rate (/day) &#160;&#160;&#160;&#160;&#160;&#160;&#160;&#160;&#160;&#160;&#160;&#160;&#160;&#160;&#160;&#160;&#160;&#160;&#160;&#160;&#160;&#160;&#160;&#160;&#160;&#160;&#160;&#160;&#160;&#160;&#160;&#160;&#160;&#160;&#160;&#160;&#160;&#160;&#160;&#160;&#160;&#160;&#160;&#160;&#160;&#160;&#160;&#160;&#160;&#160;&#10;	birth">
<text text-anchor="middle" x="397" y="-43.8" font-family="Times,serif" font-size="14.00">rate: death</text>
</a>
</g>
</g>
</g>
</svg>
