<?xml version="1.0" encoding="UTF-8" standalone="no"?>
<!DOCTYPE svg PUBLIC "-//W3C//DTD SVG 1.1//EN"
 "http://www.w3.org/Graphics/SVG/1.1/DTD/svg11.dtd">
<!-- Generated by graphviz version 5.0.1 (20220820.1526)
 -->
<!-- Pages: 1 -->
<svg width="347pt" height="71pt"
 viewBox="0.00 0.00 347.00 71.46" xmlns="http://www.w3.org/2000/svg" xmlns:xlink="http://www.w3.org/1999/xlink">
<g id="graph0" class="graph" transform="scale(1 1) rotate(0) translate(4 67.46)">
<polygon fill="white" stroke="none" points="-4,4 -4,-67.46 343,-67.46 343,4 -4,4"/>
<!-- G -->
<g id="node1" class="node">
<title>G</title>
<g id="a_node1"><a xlink:title="G (Gestating):&#10;	state for gestating animals">
<path fill="green" stroke="black" d="M12,-5.46C12,-5.46 42,-5.46 42,-5.46 48,-5.46 54,-11.46 54,-17.46 54,-17.46 54,-29.46 54,-29.46 54,-35.46 48,-41.46 42,-41.46 42,-41.46 12,-41.46 12,-41.46 6,-41.46 0,-35.46 0,-29.46 0,-29.46 0,-17.46 0,-17.46 0,-11.46 6,-5.46 12,-5.46"/>
<text text-anchor="middle" x="27" y="-19.66" font-family="Arial" font-size="16.00">G ◷</text>
</a>
</g>
</g>
<!-- NG -->
<g id="node2" class="node">
<title>NG</title>
<g id="a_node2"><a xlink:title="NG (NonGestating):&#10;	state for empty animals">
<path fill="cyan" stroke="black" stroke-width="2" d="M296,-5.46C296,-5.46 327,-5.46 327,-5.46 333,-5.46 339,-11.46 339,-17.46 339,-17.46 339,-29.46 339,-29.46 339,-35.46 333,-41.46 327,-41.46 327,-41.46 296,-41.46 296,-41.46 290,-41.46 284,-35.46 284,-29.46 284,-29.46 284,-17.46 284,-17.46 284,-11.46 290,-5.46 296,-5.46"/>
<text text-anchor="middle" x="311.5" y="-19.66" font-family="Arial" font-size="16.00">NG ◷</text>
</a>
</g>
</g>
<!-- G&#45;&gt;NG -->
<g id="edge1" class="edge">
<title>G&#45;&gt;NG</title>
<path fill="none" stroke="black" stroke-width="1.5" d="M54.25,-33.01C60.03,-34.78 66.16,-36.4 72,-37.46 148.95,-51.49 176.12,-52.68 257.25,-38.01"/>
<polygon fill="black" stroke="black" stroke-width="1.5" points="274.76,-38.29 283.95,-33.01 273.47,-31.41 274.76,-38.29"/>
<polyline fill="none" stroke="black" stroke-width="1.5" points="274.12,-34.85 269.2,-35.77"/>
<polygon fill="black" stroke="black" stroke-width="1.5" points="257.41,-37.98 262.57,-32.95 269.2,-35.77 264.04,-40.81 257.41,-37.98"/>
<g id="a_edge1&#45;label"><a xlink:title="proba: 1">
<text text-anchor="middle" x="169" y="-52.26" font-family="Times,serif" font-size="14.00">proba: 1</text>
</a>
</g>
</g>
<!-- G&#45;&gt;NG -->
<g id="edge2" class="edge">
<title>G&#45;&gt;NG</title>
<g id="a_edge2"><a xlink:title="ESCAPE: is_I">
<path fill="none" stroke="black" stroke-width="1.5" d="M69.3,-23.46C118.77,-23.46 201.76,-23.46 256.33,-23.46"/>
<polyline fill="none" stroke="black" stroke-width="1.5" points="54.07,-23.46 59.07,-23.46"/>
<polygon fill="none" stroke="black" stroke-width="1.5" points="59.07,-19.96 69.07,-23.46 59.07,-26.96 59.07,-19.96"/>
<polygon fill="black" stroke="black" stroke-width="1.5" points="273.67,-26.96 283.67,-23.46 273.67,-19.96 273.67,-26.96"/>
<polyline fill="none" stroke="black" stroke-width="1.5" points="273.67,-23.46 268.67,-23.46"/>
<polygon fill="black" stroke="black" stroke-width="1.5" points="256.67,-23.46 262.67,-19.46 268.67,-23.46 262.67,-27.46 256.67,-23.46"/>
</a>
</g>
<g id="a_edge2&#45;label"><a xlink:title="daily_abortion [parameter]:&#10;	daily probability that an infected animal aborts during gestation &#160;&#160;&#160;&#160;&#160;&#160;&#10;	1 &#45; (1 &#45; global_abortion)**(1/gestation_duration)">
<text text-anchor="middle" x="169" y="-27.26" font-family="Times,serif" font-size="14.00">proba: daily_abortion</text>
</a>
</g>
</g>
<!-- NG&#45;&gt;G -->
<g id="edge3" class="edge">
<title>NG&#45;&gt;G</title>
<g id="a_edge3"><a xlink:title="COND: is_A">
<path fill="none" stroke="black" stroke-width="1.5" d="M273.77,-13.13C259.59,-9.63 243.16,-6.18 228,-4.46 175.89,1.46 162.1,1.5 110,-4.46 96.58,-5.99 82.16,-8.9 69.22,-11.98"/>
<polyline fill="none" stroke="black" stroke-width="1.5" points="283.64,-15.65 278.8,-14.41"/>
<polygon fill="black" stroke="black" stroke-width="1.5" points="279.07,-9.32 276.59,-19.01 274.65,-18.51 277.13,-8.82 279.07,-9.32"/>
<polyline fill="none" stroke="black" stroke-width="1.5" points="278.8,-14.41 273.95,-13.17"/>
<polygon fill="black" stroke="black" stroke-width="1.5" points="63.16,-9.9 54.32,-15.75 64.88,-16.69 63.16,-9.9"/>
<polyline fill="none" stroke="black" stroke-width="1.5" points="64.02,-13.3 68.86,-12.07"/>
</a>
</g>
<g id="a_edge3&#45;label"><a xlink:title="reproduction [parameter]:&#10;	reproduction rate of the animals &#160;&#160;&#160;&#160;&#160;&#160;&#160;&#160;&#160;&#160;&#160;&#160;&#160;&#160;&#160;&#160;&#160;&#160;&#160;&#160;&#160;&#160;&#160;&#160;&#160;&#160;&#160;&#160;&#160;&#160;&#160;&#160;&#160;&#160;&#160;&#160;&#160;&#160;&#160;&#10;	0.05">
<text text-anchor="middle" x="169" y="-8.26" font-family="Times,serif" font-size="14.00">rate: reproduction</text>
</a>
</g>
</g>
</g>
</svg>
