<?xml version="1.0" encoding="UTF-8" standalone="no"?>
<!DOCTYPE svg PUBLIC "-//W3C//DTD SVG 1.1//EN"
 "http://www.w3.org/Graphics/SVG/1.1/DTD/svg11.dtd">
<!-- Generated by graphviz version 5.0.1 (20220820.1526)
 -->
<!-- Pages: 1 -->
<svg width="134pt" height="45pt"
 viewBox="0.00 0.00 134.00 45.00" xmlns="http://www.w3.org/2000/svg" xmlns:xlink="http://www.w3.org/1999/xlink">
<g id="graph0" class="graph" transform="scale(1 1) rotate(0) translate(4 41)">
<polygon fill="white" stroke="none" points="-4,4 -4,-41 130,-41 130,4 -4,4"/>
<!-- H -->
<g id="node1" class="node">
<title>H</title>
<g id="a_node1"><a xlink:title="H (Host):&#10;	host individual">
<path fill="navy" stroke="black" d="M12,-0.5C12,-0.5 42,-0.5 42,-0.5 48,-0.5 54,-6.5 54,-12.5 54,-12.5 54,-24.5 54,-24.5 54,-30.5 48,-36.5 42,-36.5 42,-36.5 12,-36.5 12,-36.5 6,-36.5 0,-30.5 0,-24.5 0,-24.5 0,-12.5 0,-12.5 0,-6.5 6,-0.5 12,-0.5"/>
<text text-anchor="middle" x="27" y="-14.7" font-family="Arial" font-size="16.00">H</text>
</a>
</g>
</g>
<!-- V -->
<g id="node2" class="node">
<title>V</title>
<g id="a_node2"><a xlink:title="V (Vector):&#10;	vector animal">
<path fill="orange" stroke="black" d="M84,-0.5C84,-0.5 114,-0.5 114,-0.5 120,-0.5 126,-6.5 126,-12.5 126,-12.5 126,-24.5 126,-24.5 126,-30.5 120,-36.5 114,-36.5 114,-36.5 84,-36.5 84,-36.5 78,-36.5 72,-30.5 72,-24.5 72,-24.5 72,-12.5 72,-12.5 72,-6.5 78,-0.5 84,-0.5"/>
<text text-anchor="middle" x="99" y="-14.7" font-family="Arial" font-size="16.00">V</text>
</a>
</g>
</g>
</g>
</svg>
