<?xml version="1.0" encoding="UTF-8" standalone="no"?>
<!DOCTYPE svg PUBLIC "-//W3C//DTD SVG 1.1//EN"
 "http://www.w3.org/Graphics/SVG/1.1/DTD/svg11.dtd">
<!-- Generated by graphviz version 5.0.1 (20220820.1526)
 -->
<!-- Pages: 1 -->
<svg width="552pt" height="82pt"
 viewBox="0.00 0.00 552.00 82.00" xmlns="http://www.w3.org/2000/svg" xmlns:xlink="http://www.w3.org/1999/xlink">
<g id="graph0" class="graph" transform="scale(1 1) rotate(0) translate(4 78)">
<polygon fill="white" stroke="none" points="-4,4 -4,-78 548,-78 548,4 -4,4"/>
<!-- J -->
<g id="node1" class="node">
<title>J</title>
<g id="a_node1"><a xlink:title="J (Juvenile):&#10;	Young animals">
<path fill="orange" stroke="black" stroke-width="2" d="M12,-20C12,-20 42,-20 42,-20 48,-20 54,-26 54,-32 54,-32 54,-44 54,-44 54,-50 48,-56 42,-56 42,-56 12,-56 12,-56 6,-56 0,-50 0,-44 0,-44 0,-32 0,-32 0,-26 6,-20 12,-20"/>
<text text-anchor="middle" x="27" y="-34.2" font-family="Arial" font-size="16.00">J ◷</text>
</a>
</g>
</g>
<!-- A -->
<g id="node2" class="node">
<title>A</title>
<g id="a_node2"><a xlink:title="A (Adult):&#10;	Adult animals">
<path fill="brown" stroke="black" d="M244.5,-34C244.5,-34 274.5,-34 274.5,-34 280.5,-34 286.5,-40 286.5,-46 286.5,-46 286.5,-58 286.5,-58 286.5,-64 280.5,-70 274.5,-70 274.5,-70 244.5,-70 244.5,-70 238.5,-70 232.5,-64 232.5,-58 232.5,-58 232.5,-46 232.5,-46 232.5,-40 238.5,-34 244.5,-34"/>
<text text-anchor="middle" x="259.5" y="-48.2" font-family="Arial" font-size="16.00">A</text>
</a>
</g>
</g>
<!-- J&#45;&gt;A -->
<g id="edge3" class="edge">
<title>J&#45;&gt;A</title>
<path fill="none" stroke="black" stroke-width="1.5" d="M54.11,-36.86C81.52,-35.94 125.85,-35.19 164,-38 181.55,-39.29 200.78,-41.92 217.29,-44.55"/>
<polygon fill="black" stroke="black" stroke-width="1.5" points="221.7,-48.84 232.14,-47.03 222.85,-41.93 221.7,-48.84"/>
<polyline fill="none" stroke="black" stroke-width="1.5" points="222.28,-45.38 217.34,-44.56"/>
<g id="a_edge3&#45;label"><a xlink:title="proba: 1">
<text text-anchor="middle" x="137" y="-41.8" font-family="Times,serif" font-size="14.00">proba: 1</text>
</a>
</g>
</g>
<!-- D -->
<g id="node3" class="node">
<title>D</title>
<g id="a_node3"><a xlink:title="D (Dead):&#10;	compartment to represent deceased animals">
<path fill="white" stroke="black" stroke-dasharray="1,5" d="M502,-1C502,-1 532,-1 532,-1 538,-1 544,-7 544,-13 544,-13 544,-25 544,-25 544,-31 538,-37 532,-37 532,-37 502,-37 502,-37 496,-37 490,-31 490,-25 490,-25 490,-13 490,-13 490,-7 496,-1 502,-1"/>
<text text-anchor="middle" x="517" y="-15.2" font-family="Arial" font-size="16.00">D</text>
</a>
</g>
</g>
<!-- J&#45;&gt;D -->
<g id="edge4" class="edge">
<title>J&#45;&gt;D</title>
<g id="a_edge4"><a xlink:title="ESCAPE: True">
<path fill="none" stroke="black" stroke-width="1.5" d="M58.37,-10.94C68.12,-4.78 79.41,0 91,0 91,0 91,0 453,0 460.39,0 468.08,-1.21 475.43,-3.03"/>
<polyline fill="none" stroke="black" stroke-width="1.5" points="46.16,-19.89 50.19,-16.94"/>
<polygon fill="none" stroke="black" stroke-width="1.5" points="48.12,-14.11 58.26,-11.03 52.26,-19.76 48.12,-14.11"/>
<polygon fill="black" stroke="black" stroke-width="1.5" points="479.27,-7.85 489.86,-7.4 481.3,-1.15 479.27,-7.85"/>
<polyline fill="none" stroke="black" stroke-width="1.5" points="480.28,-4.5 475.5,-3.05"/>
</a>
</g>
<g id="a_edge4&#45;label"><a xlink:title="mortality [parameter]:&#10;	density&#45;dependent mortality rate &#160;&#160;&#160;&#160;&#160;&#160;&#160;&#160;&#160;&#160;&#160;&#160;&#160;&#160;&#160;&#160;&#160;&#160;&#160;&#160;&#160;&#160;&#160;&#160;&#160;&#160;&#160;&#160;&#160;&#160;&#160;&#160;&#160;&#160;&#160;&#160;&#160;&#160;&#160;&#10;	b * total_herd / carrying_capacity">
<text text-anchor="middle" x="259.5" y="-3.8" font-family="Times,serif" font-size="14.00">rate: mortality</text>
</a>
</g>
</g>
<!-- A&#45;&gt;J -->
<g id="edge2" class="edge">
<title>A&#45;&gt;J</title>
<path fill="none" stroke="black" stroke-width="1.5" stroke-dasharray="5,2" d="M232.29,-54.94C195.95,-58.34 128.38,-62.28 72,-52 71,-51.82 69.98,-51.62 68.97,-51.4"/>
<polygon fill="black" stroke="black" stroke-width="1.5" points="64.81,-46.7 54.25,-47.55 63.04,-53.47 64.81,-46.7"/>
<polyline fill="none" stroke="black" stroke-width="1.5" points="63.92,-50.08 68.76,-51.35"/>
<g id="a_edge2&#45;label"><a xlink:title="birth [parameter]:&#10;	birth rate (/day) &#160;&#160;&#160;&#160;&#160;&#160;&#160;&#160;&#160;&#160;&#160;&#160;&#160;&#160;&#160;&#160;&#160;&#160;&#160;&#160;&#160;&#160;&#160;&#160;&#160;&#160;&#160;&#160;&#160;&#160;&#160;&#160;&#160;&#160;&#160;&#160;&#160;&#160;&#160;&#160;&#160;&#160;&#160;&#160;&#160;&#160;&#160;&#160;&#160;&#160;&#160;&#160;&#160;&#160;&#10;	b * 2">
<text text-anchor="middle" x="137" y="-62.8" font-family="Times,serif" font-size="14.00">rate: birth</text>
</a>
</g>
</g>
<!-- A&#45;&gt;D -->
<g id="edge1" class="edge">
<title>A&#45;&gt;D</title>
<path fill="none" stroke="black" stroke-width="1.5" d="M286.88,-48.59C331.37,-42.85 421.62,-31.19 474.61,-24.35"/>
<polygon fill="black" stroke="black" stroke-width="1.5" points="480.29,-27.14 489.76,-22.39 479.4,-20.2 480.29,-27.14"/>
<polyline fill="none" stroke="black" stroke-width="1.5" points="479.85,-23.67 474.89,-24.31"/>
<g id="a_edge1&#45;label"><a xlink:title="mortality [parameter]:&#10;	density&#45;dependent mortality rate &#160;&#160;&#160;&#160;&#160;&#160;&#160;&#160;&#160;&#160;&#160;&#160;&#160;&#160;&#160;&#160;&#160;&#160;&#160;&#160;&#160;&#160;&#160;&#160;&#160;&#160;&#160;&#160;&#160;&#160;&#160;&#160;&#160;&#160;&#160;&#160;&#160;&#160;&#160;&#10;	b * total_herd / carrying_capacity">
<text text-anchor="middle" x="394.5" y="-43.8" font-family="Times,serif" font-size="14.00">rate: mortality</text>
</a>
</g>
</g>
</g>
</svg>
