<?xml version="1.0" encoding="UTF-8" standalone="no"?>
<!DOCTYPE svg PUBLIC "-//W3C//DTD SVG 1.1//EN"
 "http://www.w3.org/Graphics/SVG/1.1/DTD/svg11.dtd">
<!-- Generated by graphviz version 5.0.1 (20220820.1526)
 -->
<!-- Pages: 1 -->
<svg width="686pt" height="45pt"
 viewBox="0.00 0.00 686.00 45.00" xmlns="http://www.w3.org/2000/svg" xmlns:xlink="http://www.w3.org/1999/xlink">
<g id="graph0" class="graph" transform="scale(1 1) rotate(0) translate(4 41)">
<polygon fill="white" stroke="none" points="-4,4 -4,-41 682,-41 682,4 -4,4"/>
<!-- S -->
<g id="node1" class="node">
<title>S</title>
<g id="a_node1"><a xlink:title="S (Susceptible):&#10;	suceptible of becoming infected">
<path fill="deepskyblue" stroke="black" stroke-width="2" d="M12,-0.5C12,-0.5 42,-0.5 42,-0.5 48,-0.5 54,-6.5 54,-12.5 54,-12.5 54,-24.5 54,-24.5 54,-30.5 48,-36.5 42,-36.5 42,-36.5 12,-36.5 12,-36.5 6,-36.5 0,-30.5 0,-24.5 0,-24.5 0,-12.5 0,-12.5 0,-6.5 6,-0.5 12,-0.5"/>
<text text-anchor="middle" x="27" y="-14.7" font-family="Arial" font-size="16.00">S</text>
</a>
</g>
</g>
<!-- I -->
<g id="node2" class="node">
<title>I</title>
<g id="a_node2"><a xlink:title="I (Infectious):&#10;	infected and able to transmit the disease">
<path fill="red" stroke="black" d="M392,-0.5C392,-0.5 422,-0.5 422,-0.5 428,-0.5 434,-6.5 434,-12.5 434,-12.5 434,-24.5 434,-24.5 434,-30.5 428,-36.5 422,-36.5 422,-36.5 392,-36.5 392,-36.5 386,-36.5 380,-30.5 380,-24.5 380,-24.5 380,-12.5 380,-12.5 380,-6.5 386,-0.5 392,-0.5"/>
<text text-anchor="middle" x="407" y="-14.7" font-family="Arial" font-size="16.00">I</text>
</a>
</g>
</g>
<!-- S&#45;&gt;I -->
<g id="edge2" class="edge">
<title>S&#45;&gt;I</title>
<path fill="none" stroke="black" stroke-width="1.5" d="M54.28,-18.5C118.99,-18.5 286.44,-18.5 364.63,-18.5"/>
<polygon fill="black" stroke="black" stroke-width="1.5" points="369.89,-22 379.89,-18.5 369.89,-15 369.89,-22"/>
<polyline fill="none" stroke="black" stroke-width="1.5" points="369.89,-18.5 364.89,-18.5"/>
<g id="a_edge2&#45;label"><a xlink:title="rate: beta * total_I / total_population">
<text text-anchor="middle" x="217" y="-22.3" font-family="Times" font-size="14.00">rate: beta * total_I / total_population</text>
</a>
</g>
</g>
<!-- R -->
<g id="node3" class="node">
<title>R</title>
<g id="a_node3"><a xlink:title="R (Resistant):&#10;	recovered and resistant to new infections">
<path fill="limegreen" stroke="black" d="M636,-0.5C636,-0.5 666,-0.5 666,-0.5 672,-0.5 678,-6.5 678,-12.5 678,-12.5 678,-24.5 678,-24.5 678,-30.5 672,-36.5 666,-36.5 666,-36.5 636,-36.5 636,-36.5 630,-36.5 624,-30.5 624,-24.5 624,-24.5 624,-12.5 624,-12.5 624,-6.5 630,-0.5 636,-0.5"/>
<text text-anchor="middle" x="651" y="-14.7" font-family="Arial" font-size="16.00">R</text>
</a>
</g>
</g>
<!-- I&#45;&gt;R -->
<g id="edge1" class="edge">
<title>I&#45;&gt;R</title>
<path fill="none" stroke="black" stroke-width="1.5" d="M434.36,-18.5C476.27,-18.5 558.47,-18.5 608.39,-18.5"/>
<polygon fill="black" stroke="black" stroke-width="1.5" points="613.67,-22 623.67,-18.5 613.67,-15 613.67,-22"/>
<polyline fill="none" stroke="black" stroke-width="1.5" points="613.67,-18.5 608.67,-18.5"/>
<g id="a_edge1&#45;label"><a xlink:title="gamma [parameter]:&#10;	recovery rate &#160;&#160;&#160;&#160;&#160;&#160;&#160;&#160;&#160;&#160;&#160;&#160;&#160;&#160;&#160;&#160;&#160;&#160;&#160;&#160;&#160;&#160;&#160;&#160;&#160;&#160;&#160;&#160;&#160;&#160;&#160;&#160;&#160;&#160;&#160;&#160;&#160;&#160;&#160;&#160;&#160;&#160;&#160;&#160;&#160;&#160;&#160;&#160;&#160;&#160;&#160;&#160;&#160;&#160;&#160;&#160;&#160;&#160;&#10;	1/30">
<text text-anchor="middle" x="529" y="-22.3" font-family="Times" font-size="14.00">rate: gamma</text>
</a>
</g>
</g>
</g>
</svg>
