<?xml version="1.0" encoding="UTF-8" standalone="no"?>
<!DOCTYPE svg PUBLIC "-//W3C//DTD SVG 1.1//EN"
 "http://www.w3.org/Graphics/SVG/1.1/DTD/svg11.dtd">
<!-- Generated by graphviz version 5.0.1 (20220820.1526)
 -->
<!-- Pages: 1 -->
<svg width="599pt" height="45pt"
 viewBox="0.00 0.00 599.00 45.00" xmlns="http://www.w3.org/2000/svg" xmlns:xlink="http://www.w3.org/1999/xlink">
<g id="graph0" class="graph" transform="scale(1 1) rotate(0) translate(4 41)">
<polygon fill="white" stroke="none" points="-4,4 -4,-41 595,-41 595,4 -4,4"/>
<!-- S -->
<g id="node1" class="node">
<title>S</title>
<g id="a_node1"><a xlink:title="S (Susceptible):&#10;	suceptible of becoming infected">
<path fill="wheat" stroke="black" stroke-width="2" d="M12,-0.5C12,-0.5 42,-0.5 42,-0.5 48,-0.5 54,-6.5 54,-12.5 54,-12.5 54,-24.5 54,-24.5 54,-30.5 48,-36.5 42,-36.5 42,-36.5 12,-36.5 12,-36.5 6,-36.5 0,-30.5 0,-24.5 0,-24.5 0,-12.5 0,-12.5 0,-6.5 6,-0.5 12,-0.5"/>
<text text-anchor="middle" x="27" y="-14.7" font-family="Arial" font-size="16.00">S</text>
</a>
</g>
</g>
<!-- I -->
<g id="node2" class="node">
<title>I</title>
<g id="a_node2"><a xlink:title="I (Infectious):&#10;	infected and able to transmit the disease">
<path fill="maroon" stroke="black" d="M307,-0.5C307,-0.5 337,-0.5 337,-0.5 343,-0.5 349,-6.5 349,-12.5 349,-12.5 349,-24.5 349,-24.5 349,-30.5 343,-36.5 337,-36.5 337,-36.5 307,-36.5 307,-36.5 301,-36.5 295,-30.5 295,-24.5 295,-24.5 295,-12.5 295,-12.5 295,-6.5 301,-0.5 307,-0.5"/>
<text text-anchor="middle" x="322" y="-14.7" font-family="Arial" font-size="16.00">I</text>
</a>
</g>
</g>
<!-- S&#45;&gt;I -->
<g id="edge2" class="edge">
<title>S&#45;&gt;I</title>
<path fill="none" stroke="black" stroke-width="1.5" d="M54,-18.5C104.91,-18.5 218.12,-18.5 279.5,-18.5"/>
<polygon fill="black" stroke="black" stroke-width="1.5" points="284.64,-22 294.64,-18.5 284.64,-15 284.64,-22"/>
<polyline fill="none" stroke="black" stroke-width="1.5" points="284.64,-18.5 279.64,-18.5"/>
<g id="a_edge2&#45;label"><a xlink:title="force_of_infection [parameter]:&#10;	infection function &#160;&#160;&#160;&#160;&#160;&#160;&#160;&#160;&#160;&#160;&#160;&#160;&#160;&#160;&#160;&#160;&#160;&#160;&#160;&#160;&#160;&#160;&#160;&#160;&#160;&#160;&#160;&#160;&#160;&#160;&#160;&#160;&#160;&#160;&#160;&#160;&#160;&#160;&#160;&#160;&#160;&#160;&#160;&#160;&#160;&#160;&#160;&#160;&#160;&#160;&#160;&#160;&#160;&#10;	is_J * force_of_infection_juveniles + is_A * force_of_infection_adults ">
<text text-anchor="middle" x="174.5" y="-22.3" font-family="Times,serif" font-size="14.00">rate: force_of_infection</text>
</a>
</g>
</g>
<!-- R -->
<g id="node3" class="node">
<title>R</title>
<g id="a_node3"><a xlink:title="R (Resistant):&#10;	healthy again and resistant to infection">
<path fill="deepskyblue" stroke="black" d="M549,-0.5C549,-0.5 579,-0.5 579,-0.5 585,-0.5 591,-6.5 591,-12.5 591,-12.5 591,-24.5 591,-24.5 591,-30.5 585,-36.5 579,-36.5 579,-36.5 549,-36.5 549,-36.5 543,-36.5 537,-30.5 537,-24.5 537,-24.5 537,-12.5 537,-12.5 537,-6.5 543,-0.5 549,-0.5"/>
<text text-anchor="middle" x="564" y="-14.7" font-family="Arial" font-size="16.00">R</text>
</a>
</g>
</g>
<!-- I&#45;&gt;R -->
<g id="edge1" class="edge">
<title>I&#45;&gt;R</title>
<path fill="none" stroke="black" stroke-width="1.5" d="M349.14,-18.5C390.71,-18.5 472.22,-18.5 521.73,-18.5"/>
<polygon fill="black" stroke="black" stroke-width="1.5" points="526.89,-22 536.89,-18.5 526.89,-15 526.89,-22"/>
<polyline fill="none" stroke="black" stroke-width="1.5" points="526.89,-18.5 521.89,-18.5"/>
<g id="a_edge1&#45;label"><a xlink:title="recovery [parameter]:&#10;	recovery rate (/day) &#160;&#160;&#160;&#160;&#160;&#160;&#160;&#160;&#160;&#160;&#160;&#160;&#160;&#160;&#160;&#160;&#160;&#160;&#160;&#160;&#160;&#160;&#160;&#160;&#160;&#160;&#160;&#160;&#160;&#160;&#160;&#160;&#160;&#160;&#160;&#160;&#160;&#160;&#160;&#160;&#160;&#160;&#160;&#160;&#160;&#160;&#160;&#160;&#160;&#160;&#160;&#10;	0.1">
<text text-anchor="middle" x="443" y="-22.3" font-family="Times,serif" font-size="14.00">rate: recovery</text>
</a>
</g>
</g>
</g>
</svg>
