<?xml version="1.0" encoding="UTF-8" standalone="no"?>
<!DOCTYPE svg PUBLIC "-//W3C//DTD SVG 1.1//EN"
 "http://www.w3.org/Graphics/SVG/1.1/DTD/svg11.dtd">
<!-- Generated by graphviz version 5.0.1 (20220820.1526)
 -->
<!-- Pages: 1 -->
<svg width="772pt" height="83pt"
 viewBox="0.00 0.00 772.00 83.00" xmlns="http://www.w3.org/2000/svg" xmlns:xlink="http://www.w3.org/1999/xlink">
<g id="graph0" class="graph" transform="scale(1 1) rotate(0) translate(4 79)">
<polygon fill="white" stroke="none" points="-4,4 -4,-79 768,-79 768,4 -4,4"/>
<!-- J -->
<g id="node1" class="node">
<title>J</title>
<g id="a_node1"><a xlink:title="J (Juvenile):&#10;	juvenile individuals">
<path fill="orange" stroke="black" d="M12,-20C12,-20 42,-20 42,-20 48,-20 54,-26 54,-32 54,-32 54,-44 54,-44 54,-50 48,-56 42,-56 42,-56 12,-56 12,-56 6,-56 0,-50 0,-44 0,-44 0,-32 0,-32 0,-26 6,-20 12,-20"/>
<text text-anchor="middle" x="27" y="-34.2" font-family="Arial" font-size="16.00">J</text>
</a>
</g>
</g>
<!-- A -->
<g id="node2" class="node">
<title>A</title>
<g id="a_node2"><a xlink:title="A (Adult):&#10;	adult individuals (producing new juveniles)">
<path fill="brown" stroke="black" d="M290.5,-34C290.5,-34 320.5,-34 320.5,-34 326.5,-34 332.5,-40 332.5,-46 332.5,-46 332.5,-58 332.5,-58 332.5,-64 326.5,-70 320.5,-70 320.5,-70 290.5,-70 290.5,-70 284.5,-70 278.5,-64 278.5,-58 278.5,-58 278.5,-46 278.5,-46 278.5,-40 284.5,-34 290.5,-34"/>
<text text-anchor="middle" x="305.5" y="-48.2" font-family="Arial" font-size="16.00">A</text>
</a>
</g>
</g>
<!-- J&#45;&gt;A -->
<g id="edge3" class="edge">
<title>J&#45;&gt;A</title>
<path fill="none" stroke="black" stroke-width="1.5" d="M54.35,-37.62C79.66,-37.39 118.97,-37.41 153,-39 190.33,-40.75 232.7,-44.54 263.12,-47.58"/>
<polygon fill="black" stroke="black" stroke-width="1.5" points="267.96,-51.59 278.27,-49.13 268.67,-44.63 267.96,-51.59"/>
<polyline fill="none" stroke="black" stroke-width="1.5" points="268.32,-48.11 263.34,-47.6"/>
<g id="a_edge3&#45;label"><a xlink:title="m [parameter]:&#10;	maturation rate, at which juveniles become adults (/day) &#160;&#160;&#160;&#160;&#160;&#160;&#160;&#160;&#160;&#160;&#160;&#160;&#160;&#160;&#160;&#10;	1/50">
<text text-anchor="middle" x="131.5" y="-42.8" font-family="Times" font-size="14.00">rate: m</text>
</a>
</g>
</g>
<!-- D -->
<g id="node3" class="node">
<title>D</title>
<g id="a_node3"><a xlink:title="D (Dead):&#10;	compartment to put dead individuals">
<path fill="white" stroke="black" stroke-dasharray="1,5" d="M722,-1C722,-1 752,-1 752,-1 758,-1 764,-7 764,-13 764,-13 764,-25 764,-25 764,-31 758,-37 752,-37 752,-37 722,-37 722,-37 716,-37 710,-31 710,-25 710,-25 710,-13 710,-13 710,-7 716,-1 722,-1"/>
<text text-anchor="middle" x="737" y="-15.2" font-family="Arial" font-size="16.00">D</text>
</a>
</g>
</g>
<!-- J&#45;&gt;D -->
<g id="edge4" class="edge">
<title>J&#45;&gt;D</title>
<path fill="none" stroke="black" stroke-width="1.5" d="M46.16,-19.89C57.92,-10.1 74.14,0 91,0 91,0 91,0 673,0 680.39,0 688.08,-1.21 695.43,-3.03"/>
<polygon fill="black" stroke="black" stroke-width="1.5" points="699.27,-7.85 709.86,-7.4 701.3,-1.15 699.27,-7.85"/>
<polyline fill="none" stroke="black" stroke-width="1.5" points="700.28,-4.5 695.5,-3.05"/>
<g id="a_edge4&#45;label"><a xlink:title="rate: mu_J * total_population / K">
<text text-anchor="middle" x="305.5" y="-3.8" font-family="Times" font-size="14.00">rate: mu_J * total_population / K</text>
</a>
</g>
</g>
<!-- A&#45;&gt;J -->
<g id="edge2" class="edge">
<title>A&#45;&gt;J</title>
<path fill="none" stroke="black" stroke-width="1.5" stroke-dasharray="5,2" d="M278.42,-55.02C235.13,-59.36 145.86,-65.46 72,-52 71,-51.82 69.98,-51.62 68.97,-51.4"/>
<polygon fill="black" stroke="black" stroke-width="1.5" points="64.81,-46.7 54.25,-47.55 63.04,-53.47 64.81,-46.7"/>
<polyline fill="none" stroke="black" stroke-width="1.5" points="63.92,-50.08 68.76,-51.35"/>
<g id="a_edge2&#45;label"><a xlink:title="b [parameter]:&#10;	the birth rate (/day) &#160;&#160;&#160;&#160;&#160;&#160;&#160;&#160;&#160;&#160;&#160;&#160;&#160;&#160;&#160;&#160;&#160;&#160;&#160;&#160;&#160;&#160;&#160;&#160;&#160;&#160;&#160;&#160;&#160;&#160;&#160;&#160;&#160;&#160;&#160;&#160;&#160;&#160;&#160;&#160;&#160;&#160;&#160;&#160;&#160;&#160;&#160;&#160;&#160;&#160;&#10;	0.005">
<text text-anchor="middle" x="131.5" y="-63.8" font-family="Times" font-size="14.00">rate: b</text>
</a>
</g>
</g>
<!-- A&#45;&gt;D -->
<g id="edge1" class="edge">
<title>A&#45;&gt;D</title>
<path fill="none" stroke="black" stroke-width="1.5" d="M332.72,-49.99C404.92,-44.44 607.04,-28.91 694.64,-22.18"/>
<polygon fill="black" stroke="black" stroke-width="1.5" points="700.15,-25.27 709.85,-21.01 699.61,-18.29 700.15,-25.27"/>
<polyline fill="none" stroke="black" stroke-width="1.5" points="699.88,-21.78 694.89,-22.16"/>
<g id="a_edge1&#45;label"><a xlink:title="rate: mu_A * total_population / K">
<text text-anchor="middle" x="556" y="-44.8" font-family="Times" font-size="14.00">rate: mu_A * total_population / K</text>
</a>
</g>
</g>
</g>
</svg>
