<?xml version="1.0" encoding="UTF-8" standalone="no"?>
<!DOCTYPE svg PUBLIC "-//W3C//DTD SVG 1.1//EN"
 "http://www.w3.org/Graphics/SVG/1.1/DTD/svg11.dtd">
<!-- Generated by graphviz version 5.0.1 (20220820.1526)
 -->
<!-- Pages: 1 -->
<svg width="486pt" height="45pt"
 viewBox="0.00 0.00 486.00 45.00" xmlns="http://www.w3.org/2000/svg" xmlns:xlink="http://www.w3.org/1999/xlink">
<g id="graph0" class="graph" transform="scale(1 1) rotate(0) translate(4 41)">
<polygon fill="white" stroke="none" points="-4,4 -4,-41 482,-41 482,4 -4,4"/>
<!-- N -->
<g id="node1" class="node">
<title>N</title>
<g id="a_node1"><a xlink:title="N (Newborn):&#10;	very young animals">
<path fill="deepskyblue" stroke="black" stroke-width="2" d="M12,-0.5C12,-0.5 42,-0.5 42,-0.5 48,-0.5 54,-6.5 54,-12.5 54,-12.5 54,-24.5 54,-24.5 54,-30.5 48,-36.5 42,-36.5 42,-36.5 12,-36.5 12,-36.5 6,-36.5 0,-30.5 0,-24.5 0,-24.5 0,-12.5 0,-12.5 0,-6.5 6,-0.5 12,-0.5"/>
<text text-anchor="middle" x="27" y="-14.7" font-family="Arial" font-size="16.00">N ◷</text>
</a>
</g>
</g>
<!-- J -->
<g id="node2" class="node">
<title>J</title>
<g id="a_node2"><a xlink:title="J (Juvenile):&#10;	juvenile animals">
<path fill="orange" stroke="black" d="M224,-0.5C224,-0.5 254,-0.5 254,-0.5 260,-0.5 266,-6.5 266,-12.5 266,-12.5 266,-24.5 266,-24.5 266,-30.5 260,-36.5 254,-36.5 254,-36.5 224,-36.5 224,-36.5 218,-36.5 212,-30.5 212,-24.5 212,-24.5 212,-12.5 212,-12.5 212,-6.5 218,-0.5 224,-0.5"/>
<text text-anchor="middle" x="239" y="-14.7" font-family="Arial" font-size="16.00">J ◷</text>
</a>
</g>
</g>
<!-- N&#45;&gt;J -->
<g id="edge2" class="edge">
<title>N&#45;&gt;J</title>
<path fill="none" stroke="black" stroke-width="1.5" d="M54.17,-18.5C89.95,-18.5 154.51,-18.5 196.81,-18.5"/>
<polygon fill="black" stroke="black" stroke-width="1.5" points="201.83,-22 211.83,-18.5 201.83,-15 201.83,-22"/>
<polyline fill="none" stroke="black" stroke-width="1.5" points="201.83,-18.5 196.83,-18.5"/>
<g id="a_edge2&#45;label"><a xlink:title="proba: 1">
<text text-anchor="middle" x="133" y="-22.3" font-family="Times,serif" font-size="14.00">proba: 1</text>
</a>
</g>
</g>
<!-- A -->
<g id="node3" class="node">
<title>A</title>
<g id="a_node3"><a xlink:title="A (Adult):&#10;	adult animals (producing new juveniles)">
<path fill="brown" stroke="black" d="M436,-0.5C436,-0.5 466,-0.5 466,-0.5 472,-0.5 478,-6.5 478,-12.5 478,-12.5 478,-24.5 478,-24.5 478,-30.5 472,-36.5 466,-36.5 466,-36.5 436,-36.5 436,-36.5 430,-36.5 424,-30.5 424,-24.5 424,-24.5 424,-12.5 424,-12.5 424,-6.5 430,-0.5 436,-0.5"/>
<text text-anchor="middle" x="451" y="-14.7" font-family="Arial" font-size="16.00">A</text>
</a>
</g>
</g>
<!-- J&#45;&gt;A -->
<g id="edge1" class="edge">
<title>J&#45;&gt;A</title>
<path fill="none" stroke="black" stroke-width="1.5" d="M266.17,-18.5C301.95,-18.5 366.51,-18.5 408.81,-18.5"/>
<polygon fill="black" stroke="black" stroke-width="1.5" points="413.83,-22 423.83,-18.5 413.83,-15 413.83,-22"/>
<polyline fill="none" stroke="black" stroke-width="1.5" points="413.83,-18.5 408.83,-18.5"/>
<g id="a_edge1&#45;label"><a xlink:title="proba: 1">
<text text-anchor="middle" x="345" y="-22.3" font-family="Times,serif" font-size="14.00">proba: 1</text>
</a>
</g>
</g>
</g>
</svg>
