<?xml version="1.0" encoding="UTF-8" standalone="no"?>
<!DOCTYPE svg PUBLIC "-//W3C//DTD SVG 1.1//EN"
 "http://www.w3.org/Graphics/SVG/1.1/DTD/svg11.dtd">
<!-- Generated by graphviz version 5.0.1 (20220820.1526)
 -->
<!-- Pages: 1 -->
<svg width="1022pt" height="95pt"
 viewBox="0.00 0.00 1022.00 94.50" xmlns="http://www.w3.org/2000/svg" xmlns:xlink="http://www.w3.org/1999/xlink">
<g id="graph0" class="graph" transform="scale(1 1) rotate(0) translate(4 90.5)">
<polygon fill="white" stroke="none" points="-4,4 -4,-90.5 1018,-90.5 1018,4 -4,4"/>
<!-- J -->
<g id="node1" class="node">
<title>J</title>
<g id="a_node1"><a xlink:title="J (Juvenile):&#10;	juvenile animals">
<path fill="orange" stroke="black" d="M12,-12C12,-12 42,-12 42,-12 48,-12 54,-18 54,-24 54,-24 54,-52 54,-52 54,-58 48,-64 42,-64 42,-64 12,-64 12,-64 6,-64 0,-58 0,-52 0,-52 0,-24 0,-24 0,-18 6,-12 12,-12"/>
<text text-anchor="middle" x="27" y="-47.2" font-family="Arial" font-size="16.00">J </text>
<polyline fill="none" stroke="black" points="0,-38 54,-38"/>
<text text-anchor="middle" x="27" y="-21.2" font-family="Arial" font-size="16.00">◆</text>
</a>
</g>
</g>
<!-- A -->
<g id="node2" class="node">
<title>A</title>
<g id="a_node2"><a xlink:title="A (Non&#45;gestating Adult):&#10;	adult animals">
<path fill="brown" stroke="black" d="M228,-12C228,-12 258,-12 258,-12 264,-12 270,-18 270,-24 270,-24 270,-52 270,-52 270,-58 264,-64 258,-64 258,-64 228,-64 228,-64 222,-64 216,-58 216,-52 216,-52 216,-24 216,-24 216,-18 222,-12 228,-12"/>
<text text-anchor="middle" x="243" y="-47.2" font-family="Arial" font-size="16.00">A </text>
<polyline fill="none" stroke="black" points="216,-38 270,-38"/>
<text text-anchor="middle" x="243" y="-21.2" font-family="Arial" font-size="16.00">◆</text>
</a>
</g>
</g>
<!-- J&#45;&gt;A -->
<g id="edge5" class="edge">
<title>J&#45;&gt;A</title>
<g id="a_edge5"><a xlink:title="COND: GreaterThan(age, adult_age)">
<path fill="none" stroke="black" stroke-width="1.5" d="M64.28,-38C102.08,-38 161.21,-38 200.75,-38"/>
<polyline fill="none" stroke="black" stroke-width="1.5" points="54.24,-38 59.24,-38"/>
<polygon fill="black" stroke="black" stroke-width="1.5" points="60.24,-43 60.24,-33 62.24,-33 62.24,-43 60.24,-43"/>
<polyline fill="none" stroke="black" stroke-width="1.5" points="59.24,-38 64.24,-38"/>
<polygon fill="black" stroke="black" stroke-width="1.5" points="205.88,-41.5 215.88,-38 205.88,-34.5 205.88,-41.5"/>
<polyline fill="none" stroke="black" stroke-width="1.5" points="205.88,-38 200.88,-38"/>
</a>
</g>
<g id="a_edge5&#45;label"><a xlink:title="proba: 1">
<text text-anchor="middle" x="135" y="-41.8" font-family="Times" font-size="14.00">proba: 1</text>
</a>
</g>
</g>
<!-- G -->
<g id="node3" class="node">
<title>G</title>
<g id="a_node3"><a xlink:title="G (Gestating Adult):&#10;	adult animals (producing new juveniles)">
<path fill="deepskyblue" stroke="black" d="M563,-34C563,-34 593,-34 593,-34 599,-34 605,-40 605,-46 605,-46 605,-74 605,-74 605,-80 599,-86 593,-86 593,-86 563,-86 563,-86 557,-86 551,-80 551,-74 551,-74 551,-46 551,-46 551,-40 557,-34 563,-34"/>
<text text-anchor="middle" x="578" y="-69.2" font-family="Arial" font-size="16.00">G ◷ </text>
<polyline fill="none" stroke="black" points="551,-60 605,-60"/>
<text text-anchor="middle" x="578" y="-43.2" font-family="Arial" font-size="16.00">◆</text>
</a>
</g>
</g>
<!-- A&#45;&gt;G -->
<g id="edge2" class="edge">
<title>A&#45;&gt;G</title>
<g id="a_edge2"><a xlink:title="COND: is_Female">
<path fill="none" stroke="black" stroke-width="1.5" d="M280.25,-36.71C318.15,-35.7 379.34,-35.07 432,-39 467.31,-41.64 507.1,-47.62 536.05,-52.52"/>
<polyline fill="none" stroke="black" stroke-width="1.5" points="270.2,-37 275.2,-36.85"/>
<polygon fill="black" stroke="black" stroke-width="1.5" points="276.34,-41.82 276.05,-31.83 278.05,-31.77 278.34,-41.76 276.34,-41.82"/>
<polyline fill="none" stroke="black" stroke-width="1.5" points="275.2,-36.85 280.2,-36.71"/>
<polygon fill="black" stroke="black" stroke-width="1.5" points="540.47,-56.85 550.93,-55.11 541.67,-49.95 540.47,-56.85"/>
<polyline fill="none" stroke="black" stroke-width="1.5" points="541.07,-53.4 536.15,-52.54"/>
</a>
</g>
<g id="a_edge2&#45;label"><a xlink:title="reproduction [parameter]:&#10;	reproduction rate (/days) &#160;&#160;&#160;&#160;&#160;&#160;&#160;&#160;&#160;&#160;&#160;&#160;&#160;&#160;&#160;&#160;&#160;&#160;&#160;&#160;&#160;&#160;&#160;&#160;&#160;&#160;&#160;&#160;&#160;&#160;&#160;&#160;&#160;&#160;&#160;&#160;&#160;&#160;&#160;&#160;&#160;&#160;&#160;&#160;&#160;&#160;&#10;	1/20">
<text text-anchor="middle" x="379" y="-42.8" font-family="Times" font-size="14.00">rate: reproduction</text>
</a>
</g>
</g>
<!-- D -->
<g id="node4" class="node">
<title>D</title>
<g id="a_node4"><a xlink:title="D (Dead):&#10;	compartment to put dead animals">
<path fill="white" stroke="black" stroke-dasharray="1,5" d="M972,-1C972,-1 1002,-1 1002,-1 1008,-1 1014,-7 1014,-13 1014,-13 1014,-25 1014,-25 1014,-31 1008,-37 1002,-37 1002,-37 972,-37 972,-37 966,-37 960,-31 960,-25 960,-25 960,-13 960,-13 960,-7 966,-1 972,-1"/>
<text text-anchor="middle" x="987" y="-15.2" font-family="Arial" font-size="16.00">D</text>
</a>
</g>
</g>
<!-- A&#45;&gt;D -->
<g id="edge1" class="edge">
<title>A&#45;&gt;D</title>
<path fill="none" stroke="black" stroke-width="1.5" d="M270.21,-13.72C280.83,-6.27 293.72,0 307,0 307,0 307,0 923,0 930.39,0 938.08,-1.21 945.43,-3.03"/>
<polygon fill="black" stroke="black" stroke-width="1.5" points="949.27,-7.85 959.86,-7.4 951.3,-1.15 949.27,-7.85"/>
<polyline fill="none" stroke="black" stroke-width="1.5" points="950.28,-4.5 945.5,-3.05"/>
<g id="a_edge1&#45;label"><a xlink:title="rate: 1 / avg_adult_death_age">
<text text-anchor="middle" x="578" y="-3.8" font-family="Times" font-size="14.00">rate: 1 / avg_adult_death_age</text>
</a>
</g>
</g>
<!-- G&#45;&gt;A -->
<g id="edge3" class="edge">
<title>G&#45;&gt;A</title>
<path fill="none" stroke="black" stroke-width="1.5" d="M550.97,-59.85C505.36,-59.48 408.06,-58.22 326,-54 314.9,-53.43 309.18,-53.64 296.85,-51.78"/>
<polygon fill="black" stroke="black" stroke-width="1.5" points="280.79,-45.17 270.31,-46.74 279.48,-52.05 280.79,-45.17"/>
<polyline fill="none" stroke="black" stroke-width="1.5" points="280.13,-48.61 285.04,-49.54"/>
<polygon fill="black" stroke="black" stroke-width="1.5" points="296.83,-51.78 290.19,-54.59 285.04,-49.54 291.69,-46.73 296.83,-51.78"/>
<g id="a_edge3&#45;label"><a xlink:title="proba: 1">
<text text-anchor="middle" x="379" y="-61.8" font-family="Times" font-size="14.00">proba: 1</text>
</a>
</g>
</g>
<!-- G&#45;&gt;D -->
<g id="edge4" class="edge">
<title>G&#45;&gt;D</title>
<g id="a_edge4"><a xlink:title="ESCAPE: True">
<path fill="none" stroke="black" stroke-width="1.5" d="M620.1,-55.86C698.03,-48.01 866.49,-31.04 944.64,-23.17"/>
<polyline fill="none" stroke="black" stroke-width="1.5" points="605.08,-57.37 610.05,-56.87"/>
<polygon fill="none" stroke="black" stroke-width="1.5" points="609.7,-53.39 620,-55.87 610.4,-60.35 609.7,-53.39"/>
<polygon fill="black" stroke="black" stroke-width="1.5" points="950.28,-26.12 959.88,-21.63 949.58,-19.15 950.28,-26.12"/>
<polyline fill="none" stroke="black" stroke-width="1.5" points="949.93,-22.63 944.95,-23.14"/>
</a>
</g>
<g id="a_edge4&#45;label"><a xlink:title="rate: 1 / avg_adult_death_age">
<text text-anchor="middle" x="814" y="-49.8" font-family="Times" font-size="14.00">rate: 1 / avg_adult_death_age</text>
</a>
</g>
</g>
</g>
</svg>
