<?xml version="1.0" encoding="UTF-8" standalone="no"?>
<!DOCTYPE svg PUBLIC "-//W3C//DTD SVG 1.1//EN"
 "http://www.w3.org/Graphics/SVG/1.1/DTD/svg11.dtd">
<!-- Generated by graphviz version 5.0.1 (20220820.1526)
 -->
<!-- Pages: 1 -->
<svg width="863pt" height="100pt"
 viewBox="0.00 0.00 863.00 100.00" xmlns="http://www.w3.org/2000/svg" xmlns:xlink="http://www.w3.org/1999/xlink">
<g id="graph0" class="graph" transform="scale(1 1) rotate(0) translate(4 96)">
<polygon fill="white" stroke="none" points="-4,4 -4,-96 859,-96 859,4 -4,4"/>
<!-- S -->
<g id="node1" class="node">
<title>S</title>
<g id="a_node1"><a xlink:title="S (Susceptible):&#10;	suceptible of becoming infected">
<path fill="wheat" stroke="black" d="M12,-1C12,-1 42,-1 42,-1 48,-1 54,-7 54,-13 54,-13 54,-25 54,-25 54,-31 48,-37 42,-37 42,-37 12,-37 12,-37 6,-37 0,-31 0,-25 0,-25 0,-13 0,-13 0,-7 6,-1 12,-1"/>
<text text-anchor="middle" x="27" y="-15.2" font-family="Arial" font-size="16.00">S</text>
</a>
</g>
</g>
<!-- E -->
<g id="node2" class="node">
<title>E</title>
<g id="a_node2"><a xlink:title="E (Latent):&#10;	infected but not yet able to transmit the disease">
<path fill="orange" stroke="black" d="M307,-29C307,-29 337,-29 337,-29 343,-29 349,-35 349,-41 349,-41 349,-53 349,-53 349,-59 343,-65 337,-65 337,-65 307,-65 307,-65 301,-65 295,-59 295,-53 295,-53 295,-41 295,-41 295,-35 301,-29 307,-29"/>
<text text-anchor="middle" x="322" y="-43.2" font-family="Arial" font-size="16.00">E</text>
</a>
</g>
</g>
<!-- S&#45;&gt;E -->
<g id="edge4" class="edge">
<title>S&#45;&gt;E</title>
<path fill="none" stroke="black" stroke-width="1.5" d="M54,-21.48C104.91,-26.35 218.12,-37.17 279.5,-43.03"/>
<polygon fill="black" stroke="black" stroke-width="1.5" points="284.35,-47.01 294.64,-44.48 285.01,-40.05 284.35,-47.01"/>
<polyline fill="none" stroke="black" stroke-width="1.5" points="284.68,-43.53 279.7,-43.05"/>
<g id="a_edge4&#45;label"><a xlink:title="force_of_infection [parameter]:&#10;	infection function &#160;&#160;&#160;&#160;&#160;&#160;&#160;&#160;&#160;&#160;&#160;&#160;&#160;&#160;&#160;&#160;&#160;&#160;&#160;&#160;&#160;&#160;&#160;&#160;&#160;&#160;&#160;&#160;&#160;&#160;&#160;&#160;&#160;&#160;&#160;&#160;&#160;&#160;&#160;&#160;&#160;&#160;&#160;&#160;&#160;&#160;&#160;&#160;&#160;&#160;&#160;&#160;&#160;&#10;	transmission_I * total_I / total_herd">
<text text-anchor="middle" x="174.5" y="-41.8" font-family="Times,serif" font-size="14.00">rate: force_of_infection</text>
</a>
</g>
</g>
<!-- I -->
<g id="node3" class="node">
<title>I</title>
<g id="a_node3"><a xlink:title="I (Infectious):&#10;	infected and able to transmit the disease">
<path fill="maroon" stroke="black" d="M571,-29C571,-29 601,-29 601,-29 607,-29 613,-35 613,-41 613,-41 613,-53 613,-53 613,-59 607,-65 601,-65 601,-65 571,-65 571,-65 565,-65 559,-59 559,-53 559,-53 559,-41 559,-41 559,-35 565,-29 571,-29"/>
<text text-anchor="middle" x="586" y="-43.2" font-family="Arial" font-size="16.00">I</text>
</a>
</g>
</g>
<!-- E&#45;&gt;I -->
<g id="edge1" class="edge">
<title>E&#45;&gt;I</title>
<path fill="none" stroke="black" stroke-width="1.5" d="M349.08,-47C394.57,-47 488.78,-47 543.39,-47"/>
<polygon fill="black" stroke="black" stroke-width="1.5" points="548.64,-50.5 558.64,-47 548.64,-43.5 548.64,-50.5"/>
<polyline fill="none" stroke="black" stroke-width="1.5" points="548.64,-47 543.64,-47"/>
<g id="a_edge1&#45;label"><a xlink:title="rate: &#160;&#160;&#160;&#160;1 &#160;&#160;&#160;&#160;&#10;──────────&#10;incubation">
<text text-anchor="middle" x="454" y="-80.8" font-family="Times,serif" font-size="14.00">rate: &#160;&#160;&#160;&#160;1 &#160;&#160;&#160;&#160;</text>
<text text-anchor="middle" x="454" y="-65.8" font-family="Times,serif" font-size="14.00">──────────</text>
<text text-anchor="middle" x="454" y="-50.8" font-family="Times,serif" font-size="14.00">incubation</text>
</a>
</g>
</g>
<!-- R -->
<g id="node4" class="node">
<title>R</title>
<g id="a_node4"><a xlink:title="R (Resistant):&#10;	healthy again and resistant to infection">
<path fill="deepskyblue" stroke="black" d="M813,-1C813,-1 843,-1 843,-1 849,-1 855,-7 855,-13 855,-13 855,-25 855,-25 855,-31 849,-37 843,-37 843,-37 813,-37 813,-37 807,-37 801,-31 801,-25 801,-25 801,-13 801,-13 801,-7 807,-1 813,-1"/>
<text text-anchor="middle" x="828" y="-15.2" font-family="Arial" font-size="16.00">R</text>
</a>
</g>
</g>
<!-- I&#45;&gt;R -->
<g id="edge2" class="edge">
<title>I&#45;&gt;R</title>
<path fill="none" stroke="black" stroke-width="1.5" d="M613.14,-43.95C654.71,-39.1 736.22,-29.59 785.73,-23.81"/>
<polygon fill="black" stroke="black" stroke-width="1.5" points="791.36,-26.68 800.89,-22.05 790.55,-19.73 791.36,-26.68"/>
<polyline fill="none" stroke="black" stroke-width="1.5" points="790.96,-23.2 785.99,-23.78"/>
<g id="a_edge2&#45;label"><a xlink:title="recovery [parameter]:&#10;	recovery rate (/day) &#160;&#160;&#160;&#160;&#160;&#160;&#160;&#160;&#160;&#160;&#160;&#160;&#160;&#160;&#160;&#160;&#160;&#160;&#160;&#160;&#160;&#160;&#160;&#160;&#160;&#160;&#160;&#160;&#160;&#160;&#160;&#160;&#160;&#160;&#160;&#160;&#160;&#160;&#160;&#160;&#160;&#160;&#160;&#160;&#160;&#160;&#160;&#160;&#160;&#160;&#160;&#10;	0.1">
<text text-anchor="middle" x="707" y="-40.8" font-family="Times,serif" font-size="14.00">rate: recovery</text>
</a>
</g>
</g>
<!-- R&#45;&gt;S -->
<g id="edge3" class="edge">
<title>R&#45;&gt;S</title>
<path fill="none" stroke="black" stroke-width="1.5" d="M800.86,-7.4C789.72,-3.44 776.45,0 764,0 91,0 91,0 91,0 83.61,0 75.92,-1.21 68.57,-3.03"/>
<polygon fill="black" stroke="black" stroke-width="1.5" points="62.7,-1.15 54.14,-7.4 64.73,-7.85 62.7,-1.15"/>
<polyline fill="none" stroke="black" stroke-width="1.5" points="63.72,-4.5 68.5,-3.05"/>
<g id="a_edge3&#45;label"><a xlink:title="waning [parameter]:&#10;	rate at which individuals lose immunity (/day) &#160;&#160;&#160;&#160;&#160;&#160;&#160;&#160;&#160;&#160;&#160;&#160;&#160;&#160;&#160;&#160;&#160;&#160;&#160;&#160;&#160;&#160;&#160;&#160;&#160;&#10;	0.05">
<text text-anchor="middle" x="454" y="-3.8" font-family="Times,serif" font-size="14.00">rate: waning</text>
</a>
</g>
</g>
</g>
</svg>
