<?xml version="1.0" encoding="UTF-8" standalone="no"?>
<!DOCTYPE svg PUBLIC "-//W3C//DTD SVG 1.1//EN"
 "http://www.w3.org/Graphics/SVG/1.1/DTD/svg11.dtd">
<!-- Generated by graphviz version 5.0.1 (20220820.1526)
 -->
<!-- Pages: 1 -->
<svg width="885pt" height="74pt"
 viewBox="0.00 0.00 885.00 73.50" xmlns="http://www.w3.org/2000/svg" xmlns:xlink="http://www.w3.org/1999/xlink">
<g id="graph0" class="graph" transform="scale(1 1) rotate(0) translate(4 69.5)">
<polygon fill="white" stroke="none" points="-4,4 -4,-69.5 881,-69.5 881,4 -4,4"/>
<!-- S -->
<g id="node1" class="node">
<title>S</title>
<g id="a_node1"><a xlink:title="S (Susceptible):&#10;	suceptible of becoming infected">
<path fill="wheat" stroke="black" d="M12,-1C12,-1 42,-1 42,-1 48,-1 54,-7 54,-13 54,-13 54,-25 54,-25 54,-31 48,-37 42,-37 42,-37 12,-37 12,-37 6,-37 0,-31 0,-25 0,-25 0,-13 0,-13 0,-7 6,-1 12,-1"/>
<text text-anchor="middle" x="27" y="-15.2" font-family="Arial" font-size="16.00">S</text>
</a>
</g>
</g>
<!-- E -->
<g id="node2" class="node">
<title>E</title>
<g id="a_node2"><a xlink:title="E (Latent):&#10;	infected but not yet able to transmit the disease">
<path fill="orange" stroke="black" d="M316,-29C316,-29 346,-29 346,-29 352,-29 358,-35 358,-41 358,-41 358,-53 358,-53 358,-59 352,-65 346,-65 346,-65 316,-65 316,-65 310,-65 304,-59 304,-53 304,-53 304,-41 304,-41 304,-35 310,-29 316,-29"/>
<text text-anchor="middle" x="331" y="-43.2" font-family="Arial" font-size="16.00">E</text>
</a>
</g>
</g>
<!-- S&#45;&gt;E -->
<g id="edge4" class="edge">
<title>S&#45;&gt;E</title>
<path fill="none" stroke="black" stroke-width="1.5" d="M54.01,-21.41C106.53,-26.28 225.59,-37.32 288.79,-43.18"/>
<polygon fill="black" stroke="black" stroke-width="1.5" points="293.67,-47.15 303.95,-44.58 294.31,-40.18 293.67,-47.15"/>
<polyline fill="none" stroke="black" stroke-width="1.5" points="293.99,-43.66 289.01,-43.2"/>
<g id="a_edge4&#45;label"><a xlink:title="force_of_infection [parameter]:&#10;	infection function &#160;&#160;&#160;&#160;&#160;&#160;&#160;&#160;&#160;&#160;&#160;&#160;&#160;&#160;&#160;&#160;&#160;&#160;&#160;&#160;&#160;&#160;&#160;&#160;&#160;&#160;&#160;&#160;&#160;&#160;&#160;&#160;&#160;&#160;&#160;&#160;&#160;&#160;&#160;&#160;&#160;&#160;&#160;&#160;&#160;&#160;&#160;&#160;&#160;&#160;&#160;&#160;&#160;&#10;	transmission_I * total_I / total_population">
<text text-anchor="middle" x="179" y="-42.8" font-family="Times" font-size="14.00">rate: force_of_infection</text>
</a>
</g>
</g>
<!-- I -->
<g id="node3" class="node">
<title>I</title>
<g id="a_node3"><a xlink:title="I (Infectious):&#10;	infected and able to transmit the disease">
<path fill="maroon" stroke="black" d="M586,-29C586,-29 616,-29 616,-29 622,-29 628,-35 628,-41 628,-41 628,-53 628,-53 628,-59 622,-65 616,-65 616,-65 586,-65 586,-65 580,-65 574,-59 574,-53 574,-53 574,-41 574,-41 574,-35 580,-29 586,-29"/>
<text text-anchor="middle" x="601" y="-43.2" font-family="Arial" font-size="16.00">I</text>
</a>
</g>
</g>
<!-- E&#45;&gt;I -->
<g id="edge1" class="edge">
<title>E&#45;&gt;I</title>
<path fill="none" stroke="black" stroke-width="1.5" d="M358.18,-47C404.82,-47 502.59,-47 558.47,-47"/>
<polygon fill="black" stroke="black" stroke-width="1.5" points="563.71,-50.5 573.71,-47 563.71,-43.5 563.71,-50.5"/>
<polyline fill="none" stroke="black" stroke-width="1.5" points="563.71,-47 558.71,-47"/>
<g id="a_edge1&#45;label"><a xlink:title="rate: 1/incubation">
<text text-anchor="middle" x="466" y="-50.8" font-family="Times" font-size="14.00">rate: 1/incubation</text>
</a>
</g>
</g>
<!-- R -->
<g id="node4" class="node">
<title>R</title>
<g id="a_node4"><a xlink:title="R (Resistant):&#10;	healthy again and resistant to infection">
<path fill="deepskyblue" stroke="black" d="M835,-1C835,-1 865,-1 865,-1 871,-1 877,-7 877,-13 877,-13 877,-25 877,-25 877,-31 871,-37 865,-37 865,-37 835,-37 835,-37 829,-37 823,-31 823,-25 823,-25 823,-13 823,-13 823,-7 829,-1 835,-1"/>
<text text-anchor="middle" x="850" y="-15.2" font-family="Arial" font-size="16.00">R</text>
</a>
</g>
</g>
<!-- I&#45;&gt;R -->
<g id="edge2" class="edge">
<title>I&#45;&gt;R</title>
<path fill="none" stroke="black" stroke-width="1.5" d="M628.43,-44C671.42,-39.13 756.81,-29.45 807.81,-23.67"/>
<polygon fill="black" stroke="black" stroke-width="1.5" points="813.21,-26.58 822.76,-21.97 812.43,-19.62 813.21,-26.58"/>
<polyline fill="none" stroke="black" stroke-width="1.5" points="812.82,-23.1 807.85,-23.66"/>
<g id="a_edge2&#45;label"><a xlink:title="recovery [parameter]:&#10;	recovery rate (/day) &#160;&#160;&#160;&#160;&#160;&#160;&#160;&#160;&#160;&#160;&#160;&#160;&#160;&#160;&#160;&#160;&#160;&#160;&#160;&#160;&#160;&#160;&#160;&#160;&#160;&#160;&#160;&#160;&#160;&#160;&#160;&#160;&#160;&#160;&#160;&#160;&#160;&#160;&#160;&#160;&#160;&#160;&#160;&#160;&#160;&#160;&#160;&#160;&#160;&#160;&#160;&#10;	0.1">
<text text-anchor="middle" x="725.5" y="-40.8" font-family="Times" font-size="14.00">rate: recovery</text>
</a>
</g>
</g>
<!-- R&#45;&gt;S -->
<g id="edge3" class="edge">
<title>R&#45;&gt;S</title>
<path fill="none" stroke="black" stroke-width="1.5" d="M822.86,-7.4C811.72,-3.44 798.45,0 786,0 91,0 91,0 91,0 83.61,0 75.92,-1.21 68.57,-3.03"/>
<polygon fill="black" stroke="black" stroke-width="1.5" points="62.7,-1.15 54.14,-7.4 64.73,-7.85 62.7,-1.15"/>
<polyline fill="none" stroke="black" stroke-width="1.5" points="63.72,-4.5 68.5,-3.05"/>
<g id="a_edge3&#45;label"><a xlink:title="waning [parameter]:&#10;	rate at which individuals lose immunity (/day) &#160;&#160;&#160;&#160;&#160;&#160;&#160;&#160;&#160;&#160;&#160;&#160;&#160;&#160;&#160;&#160;&#160;&#160;&#160;&#160;&#160;&#160;&#160;&#160;&#160;&#10;	0.05">
<text text-anchor="middle" x="466" y="-3.8" font-family="Times" font-size="14.00">rate: waning</text>
</a>
</g>
</g>
</g>
</svg>
