<?xml version="1.0" encoding="UTF-8" standalone="no"?>
<!DOCTYPE svg PUBLIC "-//W3C//DTD SVG 1.1//EN"
 "http://www.w3.org/Graphics/SVG/1.1/DTD/svg11.dtd">
<!-- Generated by graphviz version 5.0.1 (20220820.1526)
 -->
<!-- Pages: 1 -->
<svg width="827pt" height="142pt"
 viewBox="0.00 0.00 827.00 142.00" xmlns="http://www.w3.org/2000/svg" xmlns:xlink="http://www.w3.org/1999/xlink">
<g id="graph0" class="graph" transform="scale(1 1) rotate(0) translate(4 138)">
<polygon fill="white" stroke="none" points="-4,4 -4,-138 823,-138 823,4 -4,4"/>
<!-- S -->
<g id="node1" class="node">
<title>S</title>
<g id="a_node1"><a xlink:title="S (Susceptible):&#10;	suceptible of becoming infected">
<path fill="wheat" stroke="black" d="M12,-41C12,-41 42,-41 42,-41 48,-41 54,-47 54,-53 54,-53 54,-65 54,-65 54,-71 48,-77 42,-77 42,-77 12,-77 12,-77 6,-77 0,-71 0,-65 0,-65 0,-53 0,-53 0,-47 6,-41 12,-41"/>
<text text-anchor="middle" x="27" y="-55.2" font-family="Arial" font-size="16.00">S</text>
</a>
</g>
</g>
<!-- S&#45;&gt;S -->
<g id="edge8" class="edge">
<title>S&#45;&gt;S</title>
<path fill="none" stroke="black" stroke-width="1.5" stroke-dasharray="5,2" d="M19.09,-77.03C17.75,-86.69 20.38,-95.5 27,-95.5 29.58,-95.5 31.56,-94.16 32.93,-91.94"/>
<polygon fill="black" stroke="black" stroke-width="1.5" points="37.06,-87.4 34.91,-77.03 30.13,-86.48 37.06,-87.4"/>
<polyline fill="none" stroke="black" stroke-width="1.5" points="33.6,-86.94 32.94,-91.9"/>
<g id="a_edge8&#45;label"><a xlink:title="birth [parameter]:&#10;	the birth rate (/day) &#160;&#160;&#160;&#160;&#160;&#160;&#160;&#160;&#160;&#160;&#160;&#160;&#160;&#160;&#160;&#160;&#160;&#160;&#160;&#160;&#160;&#160;&#160;&#160;&#160;&#160;&#160;&#160;&#160;&#160;&#160;&#160;&#160;&#160;&#160;&#160;&#160;&#160;&#160;&#160;&#160;&#160;&#160;&#160;&#160;&#160;&#160;&#160;&#160;&#160;&#10;	0.01">
<text text-anchor="middle" x="27" y="-99.3" font-family="Times,serif" font-size="14.00">rate: birth</text>
</a>
</g>
</g>
<!-- I -->
<g id="node2" class="node">
<title>I</title>
<g id="a_node2"><a xlink:title="I (Infectious):&#10;	infected and able to transmit the disease">
<path fill="maroon" stroke="black" d="M307,-44C307,-44 337,-44 337,-44 343,-44 349,-50 349,-56 349,-56 349,-68 349,-68 349,-74 343,-80 337,-80 337,-80 307,-80 307,-80 301,-80 295,-74 295,-68 295,-68 295,-56 295,-56 295,-50 301,-44 307,-44"/>
<text text-anchor="middle" x="322" y="-58.2" font-family="Arial" font-size="16.00">I</text>
</a>
</g>
</g>
<!-- S&#45;&gt;I -->
<g id="edge7" class="edge">
<title>S&#45;&gt;I</title>
<path fill="none" stroke="black" stroke-width="1.5" d="M54.35,-51.7C70.31,-47.65 91.16,-43.04 110,-41 167,-34.82 182.12,-33.83 239,-41 252.62,-42.72 267.23,-45.98 280.28,-49.43"/>
<polygon fill="black" stroke="black" stroke-width="1.5" points="284.16,-54.15 294.74,-53.48 286.05,-47.41 284.16,-54.15"/>
<polyline fill="none" stroke="black" stroke-width="1.5" points="285.11,-50.78 280.29,-49.43"/>
<g id="a_edge7&#45;label"><a xlink:title="force_of_infection [parameter]:&#10;	infection function &#160;&#160;&#160;&#160;&#160;&#160;&#160;&#160;&#160;&#160;&#160;&#160;&#160;&#160;&#160;&#160;&#160;&#160;&#160;&#160;&#160;&#160;&#160;&#160;&#160;&#160;&#160;&#160;&#160;&#160;&#160;&#160;&#160;&#160;&#160;&#160;&#160;&#160;&#160;&#160;&#160;&#160;&#160;&#160;&#160;&#160;&#160;&#160;&#160;&#160;&#160;&#160;&#160;&#10;	transmission_I * total_I / total_herd">
<text text-anchor="middle" x="174.5" y="-44.8" font-family="Times,serif" font-size="14.00">rate: force_of_infection</text>
</a>
</g>
</g>
<!-- D -->
<g id="node4" class="node">
<title>D</title>
<g id="a_node4"><a xlink:title="D (Dead):&#10;	compartment to put dead animals">
<path fill="white" stroke="black" stroke-dasharray="1,5" d="M777,-58C777,-58 807,-58 807,-58 813,-58 819,-64 819,-70 819,-70 819,-82 819,-82 819,-88 813,-94 807,-94 807,-94 777,-94 777,-94 771,-94 765,-88 765,-82 765,-82 765,-70 765,-70 765,-64 771,-58 777,-58"/>
<text text-anchor="middle" x="792" y="-72.2" font-family="Arial" font-size="16.00">D</text>
</a>
</g>
</g>
<!-- S&#45;&gt;D -->
<g id="edge6" class="edge">
<title>S&#45;&gt;D</title>
<path fill="none" stroke="black" stroke-width="1.5" d="M37.15,-77C47.57,-94.68 66.38,-119 91,-119 91,-119 91,-119 728,-119 741.18,-119 753.63,-112.5 763.94,-104.55"/>
<polygon fill="black" stroke="black" stroke-width="1.5" points="770.16,-103.73 775.34,-94.49 765.52,-98.48 770.16,-103.73"/>
<polyline fill="none" stroke="black" stroke-width="1.5" points="767.84,-101.11 764.09,-104.42"/>
<g id="a_edge6&#45;label"><a xlink:title="death [parameter]:&#10;	the death rate (/day) &#160;&#160;&#160;&#160;&#160;&#160;&#160;&#160;&#160;&#160;&#160;&#160;&#160;&#160;&#160;&#160;&#160;&#160;&#160;&#160;&#160;&#160;&#160;&#160;&#160;&#160;&#160;&#160;&#160;&#160;&#160;&#160;&#160;&#160;&#160;&#160;&#160;&#160;&#160;&#160;&#160;&#160;&#160;&#160;&#160;&#160;&#160;&#160;&#160;&#160;&#10;	birth">
<text text-anchor="middle" x="443" y="-122.8" font-family="Times,serif" font-size="14.00">rate: death</text>
</a>
</g>
</g>
<!-- I&#45;&gt;S -->
<g id="edge3" class="edge">
<title>I&#45;&gt;S</title>
<path fill="none" stroke="black" stroke-width="1.5" stroke-dasharray="5,2" d="M294.64,-61.73C243.43,-61.21 130.2,-60.05 69.06,-59.42"/>
<polygon fill="black" stroke="black" stroke-width="1.5" points="64.04,-55.87 54,-59.27 63.97,-62.87 64.04,-55.87"/>
<polyline fill="none" stroke="black" stroke-width="1.5" points="64,-59.37 69,-59.42"/>
<g id="a_edge3&#45;label"><a xlink:title="birth [parameter]:&#10;	the birth rate (/day) &#160;&#160;&#160;&#160;&#160;&#160;&#160;&#160;&#160;&#160;&#160;&#160;&#160;&#160;&#160;&#160;&#160;&#160;&#160;&#160;&#160;&#160;&#160;&#160;&#160;&#160;&#160;&#160;&#160;&#160;&#160;&#160;&#160;&#160;&#160;&#160;&#160;&#160;&#160;&#160;&#160;&#160;&#160;&#160;&#160;&#160;&#160;&#160;&#160;&#160;&#10;	0.01">
<text text-anchor="middle" x="174.5" y="-65.8" font-family="Times,serif" font-size="14.00">rate: birth</text>
</a>
</g>
</g>
<!-- R -->
<g id="node3" class="node">
<title>R</title>
<g id="a_node3"><a xlink:title="R (Resistant):&#10;	healthy again and resistant to infection">
<path fill="deepskyblue" stroke="black" d="M551,-3C551,-3 581,-3 581,-3 587,-3 593,-9 593,-15 593,-15 593,-27 593,-27 593,-33 587,-39 581,-39 581,-39 551,-39 551,-39 545,-39 539,-33 539,-27 539,-27 539,-15 539,-15 539,-9 545,-3 551,-3"/>
<text text-anchor="middle" x="566" y="-17.2" font-family="Arial" font-size="16.00">R</text>
</a>
</g>
</g>
<!-- I&#45;&gt;R -->
<g id="edge2" class="edge">
<title>I&#45;&gt;R</title>
<path fill="none" stroke="black" stroke-width="1.5" d="M349.2,-57.07C365.28,-54.08 386.32,-50.23 405,-47 445.33,-40.04 491.47,-32.59 523.81,-27.46"/>
<polygon fill="black" stroke="black" stroke-width="1.5" points="529.59,-30.09 538.92,-25.07 528.5,-23.18 529.59,-30.09"/>
<polyline fill="none" stroke="black" stroke-width="1.5" points="529.05,-26.64 524.11,-27.42"/>
<g id="a_edge2&#45;label"><a xlink:title="recovery [parameter]:&#10;	recovery rate (/day) &#160;&#160;&#160;&#160;&#160;&#160;&#160;&#160;&#160;&#160;&#160;&#160;&#160;&#160;&#160;&#160;&#160;&#160;&#160;&#160;&#160;&#160;&#160;&#160;&#160;&#160;&#160;&#160;&#160;&#160;&#160;&#160;&#160;&#160;&#160;&#160;&#160;&#160;&#160;&#160;&#160;&#160;&#160;&#160;&#160;&#160;&#160;&#160;&#160;&#160;&#160;&#10;	0.1">
<text text-anchor="middle" x="443" y="-50.8" font-family="Times,serif" font-size="14.00">rate: recovery</text>
</a>
</g>
</g>
<!-- I&#45;&gt;D -->
<g id="edge1" class="edge">
<title>I&#45;&gt;D</title>
<path fill="none" stroke="black" stroke-width="1.5" d="M349.07,-70.47C360.31,-73.42 373.68,-76 386,-76 386,-76 386,-76 728,-76 735.02,-76 742.48,-76 749.71,-76"/>
<polygon fill="black" stroke="black" stroke-width="1.5" points="754.95,-79.5 764.95,-76 754.95,-72.5 754.95,-79.5"/>
<polyline fill="none" stroke="black" stroke-width="1.5" points="754.95,-76 749.95,-76"/>
<g id="a_edge1&#45;label"><a xlink:title="death [parameter]:&#10;	the death rate (/day) &#160;&#160;&#160;&#160;&#160;&#160;&#160;&#160;&#160;&#160;&#160;&#160;&#160;&#160;&#160;&#160;&#160;&#160;&#160;&#160;&#160;&#160;&#160;&#160;&#160;&#160;&#160;&#160;&#160;&#160;&#160;&#160;&#160;&#160;&#160;&#160;&#160;&#160;&#160;&#160;&#160;&#160;&#160;&#160;&#160;&#160;&#160;&#160;&#160;&#160;&#10;	birth">
<text text-anchor="middle" x="566" y="-79.8" font-family="Times,serif" font-size="14.00">rate: death</text>
</a>
</g>
</g>
<!-- R&#45;&gt;S -->
<g id="edge5" class="edge">
<title>R&#45;&gt;S</title>
<path fill="none" stroke="black" stroke-width="1.5" stroke-dasharray="5,2" d="M538.73,-8.42C527.13,-3.95 513.16,0 500,0 91,0 91,0 91,0 72.41,0 57.05,-13.85 46.15,-28.13"/>
<polygon fill="black" stroke="black" stroke-width="1.5" points="40.15,-30.74 37.43,-40.98 45.94,-34.67 40.15,-30.74"/>
<polyline fill="none" stroke="black" stroke-width="1.5" points="43.04,-32.7 45.85,-28.57"/>
<g id="a_edge5&#45;label"><a xlink:title="birth [parameter]:&#10;	the birth rate (/day) &#160;&#160;&#160;&#160;&#160;&#160;&#160;&#160;&#160;&#160;&#160;&#160;&#160;&#160;&#160;&#160;&#160;&#160;&#160;&#160;&#160;&#160;&#160;&#160;&#160;&#160;&#160;&#160;&#160;&#160;&#160;&#160;&#160;&#160;&#160;&#160;&#160;&#160;&#160;&#160;&#160;&#160;&#160;&#160;&#160;&#160;&#160;&#160;&#160;&#160;&#10;	0.01">
<text text-anchor="middle" x="322" y="-3.8" font-family="Times,serif" font-size="14.00">rate: birth</text>
</a>
</g>
</g>
<!-- R&#45;&gt;D -->
<g id="edge4" class="edge">
<title>R&#45;&gt;D</title>
<path fill="none" stroke="black" stroke-width="1.5" d="M593.19,-24.52C621.89,-28.67 669.16,-36.38 709,-47 722.63,-50.63 737.24,-55.48 750.29,-60.17"/>
<polygon fill="black" stroke="black" stroke-width="1.5" points="754.15,-65.33 764.75,-65.51 756.58,-58.76 754.15,-65.33"/>
<polyline fill="none" stroke="black" stroke-width="1.5" points="755.37,-62.04 750.68,-60.31"/>
<g id="a_edge4&#45;label"><a xlink:title="death [parameter]:&#10;	the death rate (/day) &#160;&#160;&#160;&#160;&#160;&#160;&#160;&#160;&#160;&#160;&#160;&#160;&#160;&#160;&#160;&#160;&#160;&#160;&#160;&#160;&#160;&#160;&#160;&#160;&#160;&#160;&#160;&#160;&#160;&#160;&#160;&#160;&#160;&#160;&#160;&#160;&#160;&#160;&#160;&#160;&#160;&#160;&#160;&#160;&#160;&#160;&#160;&#160;&#160;&#160;&#10;	birth">
<text text-anchor="middle" x="680" y="-50.8" font-family="Times,serif" font-size="14.00">rate: death</text>
</a>
</g>
</g>
</g>
</svg>
