<?xml version="1.0" encoding="UTF-8" standalone="no"?>
<!DOCTYPE svg PUBLIC "-//W3C//DTD SVG 1.1//EN"
 "http://www.w3.org/Graphics/SVG/1.1/DTD/svg11.dtd">
<!-- Generated by graphviz version 5.0.1 (20220820.1526)
 -->
<!-- Pages: 1 -->
<svg width="874pt" height="45pt"
 viewBox="0.00 0.00 874.00 45.00" xmlns="http://www.w3.org/2000/svg" xmlns:xlink="http://www.w3.org/1999/xlink">
<g id="graph0" class="graph" transform="scale(1 1) rotate(0) translate(4 41)">
<polygon fill="white" stroke="none" points="-4,4 -4,-41 870,-41 870,4 -4,4"/>
<!-- S -->
<g id="node1" class="node">
<title>S</title>
<g id="a_node1"><a xlink:title="S (Susceptible):&#10;	suceptible of becoming infected">
<path fill="deepskyblue" stroke="black" stroke-width="2" d="M12,-0.5C12,-0.5 42,-0.5 42,-0.5 48,-0.5 54,-6.5 54,-12.5 54,-12.5 54,-24.5 54,-24.5 54,-30.5 48,-36.5 42,-36.5 42,-36.5 12,-36.5 12,-36.5 6,-36.5 0,-30.5 0,-24.5 0,-24.5 0,-12.5 0,-12.5 0,-6.5 6,-0.5 12,-0.5"/>
<text text-anchor="middle" x="27" y="-14.7" font-family="Arial" font-size="16.00">S</text>
</a>
</g>
</g>
<!-- I -->
<g id="node2" class="node">
<title>I</title>
<g id="a_node2"><a xlink:title="I (Infectious):&#10;	infected and able to transmit the disease">
<path fill="red" stroke="black" d="M580,-0.5C580,-0.5 610,-0.5 610,-0.5 616,-0.5 622,-6.5 622,-12.5 622,-12.5 622,-24.5 622,-24.5 622,-30.5 616,-36.5 610,-36.5 610,-36.5 580,-36.5 580,-36.5 574,-36.5 568,-30.5 568,-24.5 568,-24.5 568,-12.5 568,-12.5 568,-6.5 574,-0.5 580,-0.5"/>
<text text-anchor="middle" x="595" y="-14.7" font-family="Arial" font-size="16.00">I</text>
</a>
</g>
</g>
<!-- S&#45;&gt;I -->
<g id="edge2" class="edge">
<title>S&#45;&gt;I</title>
<path fill="none" stroke="black" stroke-width="1.5" d="M54.16,-18.5C144.32,-18.5 442.53,-18.5 552.66,-18.5"/>
<polygon fill="black" stroke="black" stroke-width="1.5" points="557.79,-22 567.79,-18.5 557.79,-15 557.79,-22"/>
<polyline fill="none" stroke="black" stroke-width="1.5" points="557.79,-18.5 552.79,-18.5"/>
<g id="a_edge2&#45;label"><a xlink:title="rate: is_J * force_infection_juveniles + is_A * force_infection_adults">
<text text-anchor="middle" x="311" y="-22.3" font-family="Times" font-size="14.00">rate: is_J * force_infection_juveniles + is_A * force_infection_adults</text>
</a>
</g>
</g>
<!-- R -->
<g id="node3" class="node">
<title>R</title>
<g id="a_node3"><a xlink:title="R (Resistant):&#10;	recovered and resistant to new infections">
<path fill="limegreen" stroke="black" d="M824,-0.5C824,-0.5 854,-0.5 854,-0.5 860,-0.5 866,-6.5 866,-12.5 866,-12.5 866,-24.5 866,-24.5 866,-30.5 860,-36.5 854,-36.5 854,-36.5 824,-36.5 824,-36.5 818,-36.5 812,-30.5 812,-24.5 812,-24.5 812,-12.5 812,-12.5 812,-6.5 818,-0.5 824,-0.5"/>
<text text-anchor="middle" x="839" y="-14.7" font-family="Arial" font-size="16.00">R</text>
</a>
</g>
</g>
<!-- I&#45;&gt;R -->
<g id="edge1" class="edge">
<title>I&#45;&gt;R</title>
<path fill="none" stroke="black" stroke-width="1.5" d="M622.36,-18.5C664.27,-18.5 746.47,-18.5 796.39,-18.5"/>
<polygon fill="black" stroke="black" stroke-width="1.5" points="801.67,-22 811.67,-18.5 801.67,-15 801.67,-22"/>
<polyline fill="none" stroke="black" stroke-width="1.5" points="801.67,-18.5 796.67,-18.5"/>
<g id="a_edge1&#45;label"><a xlink:title="gamma [parameter]:&#10;	recovery rate &#160;&#160;&#160;&#160;&#160;&#160;&#160;&#160;&#160;&#160;&#160;&#160;&#160;&#160;&#160;&#160;&#160;&#160;&#160;&#160;&#160;&#160;&#160;&#160;&#160;&#160;&#160;&#160;&#160;&#160;&#160;&#160;&#160;&#160;&#160;&#160;&#160;&#160;&#160;&#160;&#160;&#160;&#160;&#160;&#160;&#160;&#160;&#160;&#160;&#160;&#160;&#160;&#160;&#160;&#160;&#160;&#160;&#160;&#10;	1/30">
<text text-anchor="middle" x="717" y="-22.3" font-family="Times" font-size="14.00">rate: gamma</text>
</a>
</g>
</g>
</g>
</svg>
