<?xml version="1.0" encoding="UTF-8" standalone="no"?>
<!DOCTYPE svg PUBLIC "-//W3C//DTD SVG 1.1//EN"
 "http://www.w3.org/Graphics/SVG/1.1/DTD/svg11.dtd">
<!-- Generated by graphviz version 5.0.1 (20220820.1526)
 -->
<!-- Pages: 1 -->
<svg width="607pt" height="61pt"
 viewBox="0.00 0.00 607.00 61.00" xmlns="http://www.w3.org/2000/svg" xmlns:xlink="http://www.w3.org/1999/xlink">
<g id="graph0" class="graph" transform="scale(1 1) rotate(0) translate(4 57)">
<polygon fill="white" stroke="none" points="-4,4 -4,-57 603,-57 603,4 -4,4"/>
<!-- S -->
<g id="node1" class="node">
<title>S</title>
<g id="a_node1"><a xlink:title="S (Susceptible):&#10;	suceptible of becoming infected">
<path fill="wheat" stroke="black" d="M12,-8.5C12,-8.5 48,-8.5 48,-8.5 54,-8.5 60,-14.5 60,-20.5 60,-20.5 60,-32.5 60,-32.5 60,-38.5 54,-44.5 48,-44.5 48,-44.5 12,-44.5 12,-44.5 6,-44.5 0,-38.5 0,-32.5 0,-32.5 0,-20.5 0,-20.5 0,-14.5 6,-8.5 12,-8.5"/>
<text text-anchor="middle" x="14" y="-22.7" font-family="Arial" font-size="16.00">◆</text>
<polyline fill="none" stroke="black" points="28,-8.5 28,-44.5"/>
<text text-anchor="middle" x="44" y="-22.7" font-family="Arial" font-size="16.00">S </text>
</a>
</g>
</g>
<!-- I -->
<g id="node2" class="node">
<title>I</title>
<g id="a_node2"><a xlink:title="I (Infectious):&#10;	infected and able to transmit the disease">
<path fill="maroon" stroke="black" d="M313,-0.5C313,-0.5 345,-0.5 345,-0.5 351,-0.5 357,-6.5 357,-12.5 357,-12.5 357,-40.5 357,-40.5 357,-46.5 351,-52.5 345,-52.5 345,-52.5 313,-52.5 313,-52.5 307,-52.5 301,-46.5 301,-40.5 301,-40.5 301,-12.5 301,-12.5 301,-6.5 307,-0.5 313,-0.5"/>
<text text-anchor="middle" x="315" y="-22.7" font-family="Arial" font-size="16.00">◆</text>
<polyline fill="none" stroke="black" points="329,-0.5 329,-52.5"/>
<text text-anchor="middle" x="343" y="-35.7" font-family="Arial" font-size="16.00">I </text>
<polyline fill="none" stroke="black" points="329,-26.5 357,-26.5"/>
<text text-anchor="middle" x="343" y="-9.7" font-family="Arial" font-size="16.00">◆</text>
</a>
</g>
</g>
<!-- S&#45;&gt;I -->
<g id="edge2" class="edge">
<title>S&#45;&gt;I</title>
<path fill="none" stroke="black" stroke-width="1.5" d="M60.02,-26.5C112.68,-26.5 224.17,-26.5 285.45,-26.5"/>
<polygon fill="black" stroke="black" stroke-width="1.5" points="290.6,-30 300.6,-26.5 290.6,-23 290.6,-30"/>
<polyline fill="none" stroke="black" stroke-width="1.5" points="290.6,-26.5 285.6,-26.5"/>
<g id="a_edge2&#45;label"><a xlink:title="force_of_infection [parameter]:&#10;	infection function &#160;&#160;&#160;&#160;&#160;&#160;&#160;&#160;&#160;&#160;&#160;&#160;&#160;&#160;&#160;&#160;&#160;&#160;&#160;&#160;&#160;&#160;&#160;&#160;&#160;&#160;&#160;&#160;&#160;&#160;&#160;&#160;&#160;&#160;&#160;&#160;&#160;&#160;&#160;&#160;&#160;&#160;&#160;&#160;&#160;&#160;&#160;&#160;&#160;&#160;&#160;&#160;&#160;&#10;	transmission_I * total_I / total_herd">
<text text-anchor="middle" x="180.5" y="-30.3" font-family="Times,serif" font-size="14.00">rate: force_of_infection</text>
</a>
</g>
</g>
<!-- R -->
<g id="node3" class="node">
<title>R</title>
<g id="a_node3"><a xlink:title="R (Resistant):&#10;	healthy again and resistant to infection">
<path fill="deepskyblue" stroke="black" d="M557,-8.5C557,-8.5 587,-8.5 587,-8.5 593,-8.5 599,-14.5 599,-20.5 599,-20.5 599,-32.5 599,-32.5 599,-38.5 593,-44.5 587,-44.5 587,-44.5 557,-44.5 557,-44.5 551,-44.5 545,-38.5 545,-32.5 545,-32.5 545,-20.5 545,-20.5 545,-14.5 551,-8.5 557,-8.5"/>
<text text-anchor="middle" x="572" y="-22.7" font-family="Arial" font-size="16.00">R</text>
</a>
</g>
</g>
<!-- I&#45;&gt;R -->
<g id="edge1" class="edge">
<title>I&#45;&gt;R</title>
<path fill="none" stroke="black" stroke-width="1.5" d="M357.18,-26.5C399.19,-26.5 480.18,-26.5 529.53,-26.5"/>
<polygon fill="black" stroke="black" stroke-width="1.5" points="534.66,-30 544.66,-26.5 534.66,-23 534.66,-30"/>
<polyline fill="none" stroke="black" stroke-width="1.5" points="534.66,-26.5 529.66,-26.5"/>
<g id="a_edge1&#45;label"><a xlink:title="recovery [parameter]:&#10;	recovery rate (/day) &#160;&#160;&#160;&#160;&#160;&#160;&#160;&#160;&#160;&#160;&#160;&#160;&#160;&#160;&#160;&#160;&#160;&#160;&#160;&#160;&#160;&#160;&#160;&#160;&#160;&#160;&#160;&#160;&#160;&#160;&#160;&#160;&#160;&#160;&#160;&#160;&#160;&#160;&#160;&#160;&#160;&#160;&#160;&#160;&#160;&#160;&#160;&#160;&#160;&#160;&#160;&#10;	0.1">
<text text-anchor="middle" x="451" y="-30.3" font-family="Times,serif" font-size="14.00">rate: recovery</text>
</a>
</g>
</g>
</g>
</svg>
