<?xml version="1.0" encoding="UTF-8" standalone="no"?>
<!DOCTYPE svg PUBLIC "-//W3C//DTD SVG 1.1//EN"
 "http://www.w3.org/Graphics/SVG/1.1/DTD/svg11.dtd">
<!-- Generated by graphviz version 5.0.1 (20220820.1526)
 -->
<!-- Pages: 1 -->
<svg width="350pt" height="44pt"
 viewBox="0.00 0.00 350.00 44.00" xmlns="http://www.w3.org/2000/svg" xmlns:xlink="http://www.w3.org/1999/xlink">
<g id="graph0" class="graph" transform="scale(1 1) rotate(0) translate(4 40)">
<polygon fill="white" stroke="none" points="-4,4 -4,-40 346,-40 346,4 -4,4"/>
<!-- S -->
<g id="node1" class="node">
<title>S</title>
<g id="a_node1"><a xlink:title="S (Susceptible): not infected">
<polygon fill="none" stroke="black" stroke-width="2" points="54,-36 0,-36 0,0 54,0 54,-36"/>
<text text-anchor="middle" x="27" y="-14.2" font-family="Arial" font-size="16.00">S</text>
</a>
</g>
</g>
<!-- I -->
<g id="node2" class="node">
<title>I</title>
<g id="a_node2"><a xlink:title="I (Infectious):&#10;	infected and able to transmit the disease">
<polygon fill="none" stroke="black" stroke-width="2" points="207,-36 153,-36 153,0 207,0 207,-36"/>
<text text-anchor="middle" x="180" y="-14.2" font-family="Arial" font-size="16.00">I</text>
</a>
</g>
</g>
<!-- S&#45;&gt;I -->
<g id="edge2" class="edge">
<title>S&#45;&gt;I</title>
<g id="a_edge2"><a xlink:title="S individuals become I at rate βI/N">
<path fill="none" stroke="black" stroke-width="1.5" d="M54.3,-18C77.36,-18 111.27,-18 137.9,-18"/>
<polygon fill="black" stroke="black" stroke-width="1.5" points="143,-21.5 153,-18 143,-14.5 143,-21.5"/>
<polyline fill="none" stroke="black" stroke-width="1.5" points="143,-18 138,-18"/>
</a>
</g>
<g id="a_edge2&#45;label"><a xlink:title="rate: βI/N">
<text text-anchor="middle" x="103.5" y="-21.8" font-family="Times,serif" font-size="14.00">βI/N</text>
</a>
</g>
</g>
<!-- R -->
<g id="node3" class="node">
<title>R</title>
<g id="a_node3"><a xlink:title="R (Resistant):&#10;	healthy again and resistant to infection">
<polygon fill="none" stroke="black" stroke-width="2" points="342,-36 288,-36 288,0 342,0 342,-36"/>
<text text-anchor="middle" x="315" y="-14.2" font-family="Arial" font-size="16.00">R</text>
</a>
</g>
</g>
<!-- I&#45;&gt;R -->
<g id="edge1" class="edge">
<title>I&#45;&gt;R</title>
<g id="a_edge1"><a xlink:title="I individuals become R at rate γ">
<path fill="none" stroke="black" stroke-width="1.5" d="M207.28,-18C225.95,-18 251.4,-18 272.76,-18"/>
<polygon fill="black" stroke="black" stroke-width="1.5" points="277.78,-21.5 287.78,-18 277.78,-14.5 277.78,-21.5"/>
<polyline fill="none" stroke="black" stroke-width="1.5" points="277.78,-18 272.78,-18"/>
</a>
</g>
<g id="a_edge1&#45;label"><a xlink:title="rate: γ">
<text text-anchor="middle" x="247.5" y="-21.8" font-family="Times,serif" font-size="14.00">γ</text>
</a>
</g>
</g>
</g>
</svg>
