<?xml version="1.0" encoding="UTF-8" standalone="no"?>
<!DOCTYPE svg PUBLIC "-//W3C//DTD SVG 1.1//EN"
 "http://www.w3.org/Graphics/SVG/1.1/DTD/svg11.dtd">
<!-- Generated by graphviz version 5.0.1 (20220820.1526)
 -->
<!-- Pages: 1 -->
<svg width="1748pt" height="45pt"
 viewBox="0.00 0.00 1748.00 45.00" xmlns="http://www.w3.org/2000/svg" xmlns:xlink="http://www.w3.org/1999/xlink">
<g id="graph0" class="graph" transform="scale(1 1) rotate(0) translate(4 41)">
<polygon fill="white" stroke="none" points="-4,4 -4,-41 1744,-41 1744,4 -4,4"/>
<!-- S -->
<g id="node1" class="node">
<title>S</title>
<g id="a_node1"><a xlink:title="S (Susceptible):&#10;	suceptible of becoming infected">
<path fill="deepskyblue" stroke="black" stroke-width="2" d="M12,-0.5C12,-0.5 42,-0.5 42,-0.5 48,-0.5 54,-6.5 54,-12.5 54,-12.5 54,-24.5 54,-24.5 54,-30.5 48,-36.5 42,-36.5 42,-36.5 12,-36.5 12,-36.5 6,-36.5 0,-30.5 0,-24.5 0,-24.5 0,-12.5 0,-12.5 0,-6.5 6,-0.5 12,-0.5"/>
<text text-anchor="middle" x="27" y="-14.7" font-family="Arial" font-size="16.00">S</text>
</a>
</g>
</g>
<!-- E -->
<g id="node2" class="node">
<title>E</title>
<g id="a_node2"><a xlink:title="E (Exposed):&#10;	infected but not yet able to transit the disease">
<path fill="orange" stroke="black" d="M1063,-0.5C1063,-0.5 1093,-0.5 1093,-0.5 1099,-0.5 1105,-6.5 1105,-12.5 1105,-12.5 1105,-24.5 1105,-24.5 1105,-30.5 1099,-36.5 1093,-36.5 1093,-36.5 1063,-36.5 1063,-36.5 1057,-36.5 1051,-30.5 1051,-24.5 1051,-24.5 1051,-12.5 1051,-12.5 1051,-6.5 1057,-0.5 1063,-0.5"/>
<text text-anchor="middle" x="1078" y="-14.7" font-family="Arial" font-size="16.00">E ◷</text>
</a>
</g>
</g>
<!-- S&#45;&gt;E -->
<g id="edge3" class="edge">
<title>S&#45;&gt;E</title>
<path fill="none" stroke="black" stroke-width="1.5" d="M54.19,-18.5C194.98,-18.5 861.91,-18.5 1035.58,-18.5"/>
<polygon fill="black" stroke="black" stroke-width="1.5" points="1040.59,-22 1050.59,-18.5 1040.59,-15 1040.59,-22"/>
<polyline fill="none" stroke="black" stroke-width="1.5" points="1040.59,-18.5 1035.59,-18.5"/>
<g id="a_edge3&#45;label"><a xlink:title="rate: is_H * (is_J * force_infection_juveniles + is_A * force_infection_adults + force_of_infection_due_to_vectors) + is_V * force_of_infection_vectors">
<text text-anchor="middle" x="552.5" y="-22.3" font-family="Times" font-size="14.00">rate: is_H * (is_J * force_infection_juveniles + is_A * force_infection_adults + force_of_infection_due_to_vectors) + is_V * force_of_infection_vectors</text>
</a>
</g>
</g>
<!-- I -->
<g id="node3" class="node">
<title>I</title>
<g id="a_node3"><a xlink:title="I (Infectious):&#10;	infected and able to transmit the disease">
<path fill="red" stroke="black" d="M1279,-0.5C1279,-0.5 1309,-0.5 1309,-0.5 1315,-0.5 1321,-6.5 1321,-12.5 1321,-12.5 1321,-24.5 1321,-24.5 1321,-30.5 1315,-36.5 1309,-36.5 1309,-36.5 1279,-36.5 1279,-36.5 1273,-36.5 1267,-30.5 1267,-24.5 1267,-24.5 1267,-12.5 1267,-12.5 1267,-6.5 1273,-0.5 1279,-0.5"/>
<text text-anchor="middle" x="1294" y="-14.7" font-family="Arial" font-size="16.00">I</text>
</a>
</g>
</g>
<!-- E&#45;&gt;I -->
<g id="edge1" class="edge">
<title>E&#45;&gt;I</title>
<path fill="none" stroke="black" stroke-width="1.5" d="M1105.24,-18.5C1141.84,-18.5 1208.58,-18.5 1251.83,-18.5"/>
<polygon fill="black" stroke="black" stroke-width="1.5" points="1256.88,-22 1266.88,-18.5 1256.88,-15 1256.88,-22"/>
<polyline fill="none" stroke="black" stroke-width="1.5" points="1256.88,-18.5 1251.88,-18.5"/>
<g id="a_edge1&#45;label"><a xlink:title="proba: 1">
<text text-anchor="middle" x="1186" y="-22.3" font-family="Times" font-size="14.00">proba: 1</text>
</a>
</g>
</g>
<!-- R -->
<g id="node4" class="node">
<title>R</title>
<g id="a_node4"><a xlink:title="R (Resistant):&#10;	recovered and resistant to new infections">
<path fill="limegreen" stroke="black" d="M1698,-0.5C1698,-0.5 1728,-0.5 1728,-0.5 1734,-0.5 1740,-6.5 1740,-12.5 1740,-12.5 1740,-24.5 1740,-24.5 1740,-30.5 1734,-36.5 1728,-36.5 1728,-36.5 1698,-36.5 1698,-36.5 1692,-36.5 1686,-30.5 1686,-24.5 1686,-24.5 1686,-12.5 1686,-12.5 1686,-6.5 1692,-0.5 1698,-0.5"/>
<text text-anchor="middle" x="1713" y="-14.7" font-family="Arial" font-size="16.00">R</text>
</a>
</g>
</g>
<!-- I&#45;&gt;R -->
<g id="edge2" class="edge">
<title>I&#45;&gt;R</title>
<path fill="none" stroke="black" stroke-width="1.5" d="M1321.09,-18.5C1391.44,-18.5 1585.52,-18.5 1670.84,-18.5"/>
<polygon fill="black" stroke="black" stroke-width="1.5" points="1675.92,-22 1685.92,-18.5 1675.92,-15 1675.92,-22"/>
<polyline fill="none" stroke="black" stroke-width="1.5" points="1675.92,-18.5 1670.92,-18.5"/>
<g id="a_edge2&#45;label"><a xlink:title="rate: is_H * gamma_H + is_V * gamma_V">
<text text-anchor="middle" x="1503.5" y="-22.3" font-family="Times" font-size="14.00">rate: is_H * gamma_H + is_V * gamma_V</text>
</a>
</g>
</g>
</g>
</svg>
