<?xml version="1.0" encoding="UTF-8" standalone="no"?>
<!DOCTYPE svg PUBLIC "-//W3C//DTD SVG 1.1//EN"
 "http://www.w3.org/Graphics/SVG/1.1/DTD/svg11.dtd">
<!-- Generated by graphviz version 5.0.1 (20220820.1526)
 -->
<!-- Pages: 1 -->
<svg width="613pt" height="79pt"
 viewBox="0.00 0.00 613.00 78.50" xmlns="http://www.w3.org/2000/svg" xmlns:xlink="http://www.w3.org/1999/xlink">
<g id="graph0" class="graph" transform="scale(1 1) rotate(0) translate(4 74.5)">
<polygon fill="white" stroke="none" points="-4,4 -4,-74.5 609,-74.5 609,4 -4,4"/>
<!-- S -->
<g id="node1" class="node">
<title>S</title>
<g id="a_node1"><a xlink:title="S (Susceptible):&#10;	suceptible of becoming infected">
<path fill="wheat" stroke="black" d="M12,-1C12,-1 42,-1 42,-1 48,-1 54,-7 54,-13 54,-13 54,-25 54,-25 54,-31 48,-37 42,-37 42,-37 12,-37 12,-37 6,-37 0,-31 0,-25 0,-25 0,-13 0,-13 0,-7 6,-1 12,-1"/>
<text text-anchor="middle" x="27" y="-15.2" font-family="Arial" font-size="16.00">S</text>
</a>
</g>
</g>
<!-- I -->
<g id="node2" class="node">
<title>I</title>
<g id="a_node2"><a xlink:title="I (Infectious):&#10;	infected and able to transmit the disease">
<path fill="maroon" stroke="black" d="M314,-34C314,-34 344,-34 344,-34 350,-34 356,-40 356,-46 356,-46 356,-58 356,-58 356,-64 350,-70 344,-70 344,-70 314,-70 314,-70 308,-70 302,-64 302,-58 302,-58 302,-46 302,-46 302,-40 308,-34 314,-34"/>
<text text-anchor="middle" x="329" y="-48.2" font-family="Arial" font-size="16.00">I</text>
</a>
</g>
</g>
<!-- S&#45;&gt;I -->
<g id="edge3" class="edge">
<title>S&#45;&gt;I</title>
<path fill="none" stroke="black" stroke-width="1.5" d="M54.1,-21.87C106.29,-27.61 223.9,-40.55 286.68,-47.45"/>
<polygon fill="black" stroke="black" stroke-width="1.5" points="291.43,-51.5 301.75,-49.11 292.19,-44.54 291.43,-51.5"/>
<polyline fill="none" stroke="black" stroke-width="1.5" points="291.81,-48.02 286.84,-47.47"/>
<g id="a_edge3&#45;label"><a xlink:title="force_of_infection [parameter]:&#10;	infection function &#160;&#160;&#160;&#160;&#160;&#160;&#160;&#160;&#160;&#160;&#160;&#160;&#160;&#160;&#160;&#160;&#160;&#160;&#160;&#160;&#160;&#160;&#160;&#160;&#160;&#160;&#160;&#160;&#160;&#160;&#160;&#160;&#160;&#160;&#160;&#160;&#160;&#160;&#160;&#160;&#160;&#160;&#160;&#160;&#160;&#160;&#160;&#160;&#160;&#160;&#160;&#160;&#160;&#10;	 (external_risk + transmission_I * total_I) / total_herd">
<text text-anchor="middle" x="174.5" y="-45.8" font-family="Times,serif" font-size="14.00">rate: force_of_infection</text>
</a>
</g>
</g>
<!-- R -->
<g id="node3" class="node">
<title>R</title>
<g id="a_node3"><a xlink:title="R (Resistant):&#10;	healthy again and resistant to infection">
<path fill="deepskyblue" stroke="black" d="M563,-1C563,-1 593,-1 593,-1 599,-1 605,-7 605,-13 605,-13 605,-25 605,-25 605,-31 599,-37 593,-37 593,-37 563,-37 563,-37 557,-37 551,-31 551,-25 551,-25 551,-13 551,-13 551,-7 557,-1 563,-1"/>
<text text-anchor="middle" x="578" y="-15.2" font-family="Arial" font-size="16.00">R</text>
</a>
</g>
</g>
<!-- I&#45;&gt;R -->
<g id="edge1" class="edge">
<title>I&#45;&gt;R</title>
<path fill="none" stroke="black" stroke-width="1.5" d="M356.43,-48.47C399.42,-42.72 484.81,-31.32 535.81,-24.5"/>
<polygon fill="black" stroke="black" stroke-width="1.5" points="541.31,-27.3 550.76,-22.51 540.38,-20.36 541.31,-27.3"/>
<polyline fill="none" stroke="black" stroke-width="1.5" points="540.84,-23.83 535.89,-24.49"/>
<g id="a_edge1&#45;label"><a xlink:title="recovery [parameter]:&#10;	recovery rate (/day) &#160;&#160;&#160;&#160;&#160;&#160;&#160;&#160;&#160;&#160;&#160;&#160;&#160;&#160;&#160;&#160;&#160;&#160;&#160;&#160;&#160;&#160;&#160;&#160;&#160;&#160;&#160;&#160;&#160;&#160;&#160;&#160;&#160;&#160;&#160;&#160;&#160;&#160;&#160;&#160;&#160;&#160;&#160;&#160;&#160;&#160;&#160;&#160;&#160;&#160;&#160;&#10;	0.1">
<text text-anchor="middle" x="457" y="-43.8" font-family="Times,serif" font-size="14.00">rate: recovery</text>
</a>
</g>
</g>
<!-- R&#45;&gt;S -->
<g id="edge2" class="edge">
<title>R&#45;&gt;S</title>
<path fill="none" stroke="black" stroke-width="1.5" d="M550.86,-7.4C539.72,-3.44 526.45,0 514,0 91,0 91,0 91,0 83.61,0 75.92,-1.21 68.57,-3.03"/>
<polygon fill="black" stroke="black" stroke-width="1.5" points="62.7,-1.15 54.14,-7.4 64.73,-7.85 62.7,-1.15"/>
<polyline fill="none" stroke="black" stroke-width="1.5" points="63.72,-4.5 68.5,-3.05"/>
<g id="a_edge2&#45;label"><a xlink:title="waning [parameter]:&#10;	rate at which individuals lose immunity (/day) &#160;&#160;&#160;&#160;&#160;&#160;&#160;&#160;&#160;&#160;&#160;&#160;&#160;&#160;&#160;&#160;&#160;&#160;&#160;&#160;&#160;&#160;&#160;&#160;&#160;&#10;	0.01">
<text text-anchor="middle" x="329" y="-3.8" font-family="Times,serif" font-size="14.00">rate: waning</text>
</a>
</g>
</g>
</g>
</svg>
