<?xml version="1.0" encoding="UTF-8" standalone="no"?>
<!DOCTYPE svg PUBLIC "-//W3C//DTD SVG 1.1//EN"
 "http://www.w3.org/Graphics/SVG/1.1/DTD/svg11.dtd">
<!-- Generated by graphviz version 5.0.1 (20220820.1526)
 -->
<!-- Pages: 1 -->
<svg width="152pt" height="45pt"
 viewBox="0.00 0.00 151.50 45.00" xmlns="http://www.w3.org/2000/svg" xmlns:xlink="http://www.w3.org/1999/xlink">
<g id="graph0" class="graph" transform="scale(1 1) rotate(0) translate(4 41)">
<polygon fill="white" stroke="none" points="-4,4 -4,-41 147.5,-41 147.5,4 -4,4"/>
<!-- Female -->
<g id="node1" class="node">
<title>Female</title>
<g id="a_node1"><a xlink:title="Female (Female animals):&#10;	">
<path fill="orange" stroke="black" stroke-width="2" d="M12,-0.5C12,-0.5 59,-0.5 59,-0.5 65,-0.5 71,-6.5 71,-12.5 71,-12.5 71,-24.5 71,-24.5 71,-30.5 65,-36.5 59,-36.5 59,-36.5 12,-36.5 12,-36.5 6,-36.5 0,-30.5 0,-24.5 0,-24.5 0,-12.5 0,-12.5 0,-6.5 6,-0.5 12,-0.5"/>
<text text-anchor="middle" x="35.5" y="-14.7" font-family="Arial" font-size="16.00">Female</text>
</a>
</g>
</g>
<!-- Male -->
<g id="node2" class="node">
<title>Male</title>
<g id="a_node2"><a xlink:title="Male (Male animals):&#10;	">
<path fill="deepskyblue" stroke="black" d="M101.5,-0.5C101.5,-0.5 131.5,-0.5 131.5,-0.5 137.5,-0.5 143.5,-6.5 143.5,-12.5 143.5,-12.5 143.5,-24.5 143.5,-24.5 143.5,-30.5 137.5,-36.5 131.5,-36.5 131.5,-36.5 101.5,-36.5 101.5,-36.5 95.5,-36.5 89.5,-30.5 89.5,-24.5 89.5,-24.5 89.5,-12.5 89.5,-12.5 89.5,-6.5 95.5,-0.5 101.5,-0.5"/>
<text text-anchor="middle" x="116.5" y="-14.7" font-family="Arial" font-size="16.00">Male</text>
</a>
</g>
</g>
</g>
</svg>
