<?xml version="1.0" encoding="UTF-8" standalone="no"?>
<!DOCTYPE svg PUBLIC "-//W3C//DTD SVG 1.1//EN"
 "http://www.w3.org/Graphics/SVG/1.1/DTD/svg11.dtd">
<!-- Generated by graphviz version 5.0.1 (20220820.1526)
 -->
<!-- Pages: 1 -->
<svg width="632pt" height="61pt"
 viewBox="0.00 0.00 632.00 61.00" xmlns="http://www.w3.org/2000/svg" xmlns:xlink="http://www.w3.org/1999/xlink">
<g id="graph0" class="graph" transform="scale(1 1) rotate(0) translate(4 57)">
<polygon fill="white" stroke="none" points="-4,4 -4,-57 628,-57 628,4 -4,4"/>
<!-- J -->
<g id="node1" class="node">
<title>J</title>
<g id="a_node1"><a xlink:title="J (Juvenile):&#10;	juvenile individuals">
<path fill="orange" stroke="black" d="M12,-0.5C12,-0.5 42,-0.5 42,-0.5 48,-0.5 54,-6.5 54,-12.5 54,-12.5 54,-40.5 54,-40.5 54,-46.5 48,-52.5 42,-52.5 42,-52.5 12,-52.5 12,-52.5 6,-52.5 0,-46.5 0,-40.5 0,-40.5 0,-12.5 0,-12.5 0,-6.5 6,-0.5 12,-0.5"/>
<text text-anchor="middle" x="27" y="-35.7" font-family="Arial" font-size="16.00">J </text>
<polyline fill="none" stroke="black" points="0,-26.5 54,-26.5"/>
<text text-anchor="middle" x="27" y="-9.7" font-family="Arial" font-size="16.00">◆</text>
</a>
</g>
</g>
<!-- A -->
<g id="node2" class="node">
<title>A</title>
<g id="a_node2"><a xlink:title="A (Adult):&#10;	adult individuals (producing new juveniles)">
<path fill="brown" stroke="black" d="M236,-0.5C236,-0.5 266,-0.5 266,-0.5 272,-0.5 278,-6.5 278,-12.5 278,-12.5 278,-40.5 278,-40.5 278,-46.5 272,-52.5 266,-52.5 266,-52.5 236,-52.5 236,-52.5 230,-52.5 224,-46.5 224,-40.5 224,-40.5 224,-12.5 224,-12.5 224,-6.5 230,-0.5 236,-0.5"/>
<text text-anchor="middle" x="251" y="-35.7" font-family="Arial" font-size="16.00">A </text>
<polyline fill="none" stroke="black" points="224,-26.5 278,-26.5"/>
<text text-anchor="middle" x="251" y="-9.7" font-family="Arial" font-size="16.00">◆</text>
</a>
</g>
</g>
<!-- J&#45;&gt;A -->
<g id="edge3" class="edge">
<title>J&#45;&gt;A</title>
<g id="a_edge3"><a xlink:title="COND: age &gt;= adult_age">
<path fill="none" stroke="black" stroke-width="1.5" d="M64.19,-28.28C66.83,-28.37 69.46,-28.44 72,-28.5 131.54,-29.85 146.46,-29.85 206,-28.5 206.91,-28.48 207.83,-28.46 208.75,-28.43"/>
<polyline fill="none" stroke="black" stroke-width="1.5" points="54.05,-27.88 59.05,-28.08"/>
<polygon fill="black" stroke="black" stroke-width="1.5" points="59.85,-33.11 60.24,-23.12 62.24,-23.2 61.85,-33.19 59.85,-33.11"/>
<polyline fill="none" stroke="black" stroke-width="1.5" points="59.05,-28.08 64.04,-28.27"/>
<polygon fill="black" stroke="black" stroke-width="1.5" points="214.08,-31.74 223.95,-27.88 213.83,-24.74 214.08,-31.74"/>
<polyline fill="none" stroke="black" stroke-width="1.5" points="213.96,-28.24 208.96,-28.42"/>
</a>
</g>
<g id="a_edge3&#45;label"><a xlink:title="proba: 1">
<text text-anchor="middle" x="139" y="-33.3" font-family="Times" font-size="14.00">proba: 1</text>
</a>
</g>
</g>
<!-- A&#45;&gt;J -->
<g id="edge2" class="edge">
<title>A&#45;&gt;J</title>
<path fill="none" stroke="black" stroke-width="1.5" stroke-dasharray="5,2" d="M223.65,-19.2C207.69,-15.15 186.84,-10.54 168,-8.5 142.37,-5.72 135.63,-5.72 110,-8.5 96.61,-9.95 82.2,-12.7 69.25,-15.62"/>
<polygon fill="black" stroke="black" stroke-width="1.5" points="63.26,-13.46 54.35,-19.2 64.89,-20.27 63.26,-13.46"/>
<polyline fill="none" stroke="black" stroke-width="1.5" points="64.07,-16.86 68.94,-15.7"/>
<g id="a_edge2&#45;label"><a xlink:title="birth [parameter]:&#10;	the birth rate (/day) &#160;&#160;&#160;&#160;&#160;&#160;&#160;&#160;&#160;&#160;&#160;&#160;&#160;&#160;&#160;&#160;&#160;&#160;&#160;&#160;&#160;&#160;&#160;&#160;&#160;&#160;&#160;&#160;&#160;&#160;&#160;&#160;&#160;&#160;&#160;&#160;&#160;&#160;&#160;&#160;&#160;&#160;&#160;&#160;&#160;&#160;&#160;&#160;&#160;&#160;&#10;	0.01">
<text text-anchor="middle" x="139" y="-12.3" font-family="Times" font-size="14.00">rate: birth</text>
</a>
</g>
</g>
<!-- D -->
<g id="node3" class="node">
<title>D</title>
<g id="a_node3"><a xlink:title="D (Dead):&#10;	compartment to put dead individuals">
<path fill="white" stroke="black" stroke-dasharray="1,5" d="M582,-8.5C582,-8.5 612,-8.5 612,-8.5 618,-8.5 624,-14.5 624,-20.5 624,-20.5 624,-32.5 624,-32.5 624,-38.5 618,-44.5 612,-44.5 612,-44.5 582,-44.5 582,-44.5 576,-44.5 570,-38.5 570,-32.5 570,-32.5 570,-20.5 570,-20.5 570,-14.5 576,-8.5 582,-8.5"/>
<text text-anchor="middle" x="597" y="-22.7" font-family="Arial" font-size="16.00">D</text>
</a>
</g>
</g>
<!-- A&#45;&gt;D -->
<g id="edge1" class="edge">
<title>A&#45;&gt;D</title>
<path fill="none" stroke="black" stroke-width="1.5" d="M278.14,-26.5C337.49,-26.5 482.81,-26.5 554.55,-26.5"/>
<polygon fill="black" stroke="black" stroke-width="1.5" points="559.9,-30 569.9,-26.5 559.9,-23 559.9,-30"/>
<polyline fill="none" stroke="black" stroke-width="1.5" points="559.9,-26.5 554.9,-26.5"/>
<g id="a_edge1&#45;label"><a xlink:title="rate: 1 / avg_adult_death_age">
<text text-anchor="middle" x="424" y="-30.3" font-family="Times" font-size="14.00">rate: 1 / avg_adult_death_age</text>
</a>
</g>
</g>
</g>
</svg>
